solid OpenSCAD_Model
  facet normal 1 -0 0
    outer loop
      vertex 0 2 30
      vertex 0 38 2
      vertex 0 38 30
    endloop
  endfacet
  facet normal 1 0 0
    outer loop
      vertex 0 38 2
      vertex 0 2 30
      vertex 0 2 2
    endloop
  endfacet
  facet normal -0 0 1
    outer loop
      vertex 0 38 2
      vertex 80 2 2
      vertex 80 38 2
    endloop
  endfacet
  facet normal 0 0 1
    outer loop
      vertex 80 2 2
      vertex 0 38 2
      vertex 0 2 2
    endloop
  endfacet
  facet normal -1 0 0
    outer loop
      vertex 80 2 2
      vertex 80 38 30
      vertex 80 38 2
    endloop
  endfacet
  facet normal -1 -0 0
    outer loop
      vertex 80 38 30
      vertex 80 2 2
      vertex 80 2 30
    endloop
  endfacet
  facet normal 0 1 -0
    outer loop
      vertex 82 40 0
      vertex -2 40 32
      vertex 82 40 32
    endloop
  endfacet
  facet normal 0 1 0
    outer loop
      vertex -2 40 32
      vertex 82 40 0
      vertex -2 40 0
    endloop
  endfacet
  facet normal 0 0 -1
    outer loop
      vertex -2 0 0
      vertex 82 40 0
      vertex 82 0 0
    endloop
  endfacet
  facet normal -0 0 -1
    outer loop
      vertex 82 40 0
      vertex -2 0 0
      vertex -2 40 0
    endloop
  endfacet
  facet normal 0 -1 0
    outer loop
      vertex -2 0 0
      vertex 82 0 32
      vertex -2 0 32
    endloop
  endfacet
  facet normal 0 -1 -0
    outer loop
      vertex 82 0 32
      vertex -2 0 0
      vertex 82 0 0
    endloop
  endfacet
  facet normal -0 0 1
    outer loop
      vertex 15 30 32
      vertex 65 23 32
      vertex 65 30 32
    endloop
  endfacet
  facet normal 0 0 1
    outer loop
      vertex 65 23 32
      vertex 15 30 32
      vertex 15 23 32
    endloop
  endfacet
  facet normal 0 0 1
    outer loop
      vertex 65 30 32
      vertex 82 40 32
      vertex 65 33 32
    endloop
  endfacet
  facet normal 0 0 1
    outer loop
      vertex 82 40 32
      vertex 15 33 32
      vertex 65 33 32
    endloop
  endfacet
  facet normal 0 0 1
    outer loop
      vertex -2 40 32
      vertex 15 30 32
      vertex 15 33 32
    endloop
  endfacet
  facet normal 0 0 1
    outer loop
      vertex 15 30 32
      vertex -2 40 32
      vertex 15 23 32
    endloop
  endfacet
  facet normal 0 0 1
    outer loop
      vertex 15 23 32
      vertex -2 40 32
      vertex 15 20 32
    endloop
  endfacet
  facet normal -0 0 1
    outer loop
      vertex -2 40 32
      vertex 15 33 32
      vertex 82 40 32
    endloop
  endfacet
  facet normal 0 0 1
    outer loop
      vertex 65 23 32
      vertex 82 40 32
      vertex 65 30 32
    endloop
  endfacet
  facet normal 0 0 1
    outer loop
      vertex 65 20 32
      vertex 82 40 32
      vertex 65 23 32
    endloop
  endfacet
  facet normal 0 0 1
    outer loop
      vertex 82 40 32
      vertex 65 20 32
      vertex 82 0 32
    endloop
  endfacet
  facet normal -0 0 1
    outer loop
      vertex 15 20 32
      vertex 82 0 32
      vertex 65 20 32
    endloop
  endfacet
  facet normal 0 0 1
    outer loop
      vertex 15 20 32
      vertex -2 0 32
      vertex 82 0 32
    endloop
  endfacet
  facet normal 0 0 1
    outer loop
      vertex -2 0 32
      vertex 15 20 32
      vertex -2 40 32
    endloop
  endfacet
  facet normal 0 1 -0
    outer loop
      vertex 80 2 2
      vertex 0 2 30
      vertex 80 2 30
    endloop
  endfacet
  facet normal 0 1 0
    outer loop
      vertex 0 2 30
      vertex 80 2 2
      vertex 0 2 2
    endloop
  endfacet
  facet normal 0 -1 0
    outer loop
      vertex 0 38 2
      vertex 80 38 30
      vertex 0 38 30
    endloop
  endfacet
  facet normal 0 -1 -0
    outer loop
      vertex 80 38 30
      vertex 0 38 2
      vertex 80 38 2
    endloop
  endfacet
  facet normal 0 0 -1
    outer loop
      vertex 0 2 30
      vertex 80 38 30
      vertex 80 2 30
    endloop
  endfacet
  facet normal -0 0 -1
    outer loop
      vertex 80 38 30
      vertex 0 2 30
      vertex 0 38 30
    endloop
  endfacet
  facet normal -1 0 0
    outer loop
      vertex 15 30 32
      vertex 15 33 34
      vertex 15 33 32
    endloop
  endfacet
  facet normal -1 -0 0
    outer loop
      vertex 15 33 34
      vertex 15 30 32
      vertex 15 30 34
    endloop
  endfacet
  facet normal -0 0 1
    outer loop
      vertex 15 33 34
      vertex 65 30 34
      vertex 65 33 34
    endloop
  endfacet
  facet normal 0 0 1
    outer loop
      vertex 65 30 34
      vertex 15 33 34
      vertex 15 30 34
    endloop
  endfacet
  facet normal 1 -0 0
    outer loop
      vertex 65 30 34
      vertex 65 33 32
      vertex 65 33 34
    endloop
  endfacet
  facet normal 1 0 0
    outer loop
      vertex 65 33 32
      vertex 65 30 34
      vertex 65 30 32
    endloop
  endfacet
  facet normal 0 1 -0
    outer loop
      vertex 65 33 32
      vertex 15 33 34
      vertex 65 33 34
    endloop
  endfacet
  facet normal 0 1 0
    outer loop
      vertex 15 33 34
      vertex 65 33 32
      vertex 15 33 32
    endloop
  endfacet
  facet normal 0 -1 0
    outer loop
      vertex 15 30 32
      vertex 65 30 34
      vertex 15 30 34
    endloop
  endfacet
  facet normal 0 -1 -0
    outer loop
      vertex 65 30 34
      vertex 15 30 32
      vertex 65 30 32
    endloop
  endfacet
  facet normal -1 0 0
    outer loop
      vertex 15 20 32
      vertex 15 23 34
      vertex 15 23 32
    endloop
  endfacet
  facet normal -1 -0 0
    outer loop
      vertex 15 23 34
      vertex 15 20 32
      vertex 15 20 34
    endloop
  endfacet
  facet normal -0 0 1
    outer loop
      vertex 15 23 34
      vertex 65 20 34
      vertex 65 23 34
    endloop
  endfacet
  facet normal 0 0 1
    outer loop
      vertex 65 20 34
      vertex 15 23 34
      vertex 15 20 34
    endloop
  endfacet
  facet normal 1 -0 0
    outer loop
      vertex 65 20 34
      vertex 65 23 32
      vertex 65 23 34
    endloop
  endfacet
  facet normal 1 0 0
    outer loop
      vertex 65 23 32
      vertex 65 20 34
      vertex 65 20 32
    endloop
  endfacet
  facet normal 0 1 -0
    outer loop
      vertex 65 23 32
      vertex 15 23 34
      vertex 65 23 34
    endloop
  endfacet
  facet normal 0 1 0
    outer loop
      vertex 15 23 34
      vertex 65 23 32
      vertex 15 23 32
    endloop
  endfacet
  facet normal 0 -1 0
    outer loop
      vertex 15 20 32
      vertex 65 20 34
      vertex 15 20 34
    endloop
  endfacet
  facet normal 0 -1 -0
    outer loop
      vertex 65 20 34
      vertex 15 20 32
      vertex 65 20 32
    endloop
  endfacet
  facet normal -1 0 0
    outer loop
      vertex -2 0 0
      vertex -2 40 32
      vertex -2 40 0
    endloop
  endfacet
  facet normal -1 -0 0
    outer loop
      vertex -2 40 32
      vertex -2 0 0
      vertex -2 0 32
    endloop
  endfacet
  facet normal 1 -0 0
    outer loop
      vertex 82 0 32
      vertex 82 40 0
      vertex 82 40 32
    endloop
  endfacet
  facet normal 1 0 0
    outer loop
      vertex 82 40 0
      vertex 82 0 32
      vertex 82 0 0
    endloop
  endfacet
endsolid OpenSCAD_Model
