solid OpenSCAD_Model
  facet normal -1 0 0
    outer loop
      vertex 0 0 0
      vertex 0 25 9.25
      vertex 0 25 0
    endloop
  endfacet
  facet normal -1 -0 0
    outer loop
      vertex 0 25 9.25
      vertex 0 0 0
      vertex 0 0 9.25
    endloop
  endfacet
  facet normal -0 0 1
    outer loop
      vertex 2 25 1.25
      vertex 12 0 1.25
      vertex 12 25 1.25
    endloop
  endfacet
  facet normal 0 0 1
    outer loop
      vertex 12 0 1.25
      vertex 2 25 1.25
      vertex 2 0 1.25
    endloop
  endfacet
  facet normal 1 -0 0
    outer loop
      vertex 12 0 1.25
      vertex 12 25 0
      vertex 12 25 1.25
    endloop
  endfacet
  facet normal 1 0 0
    outer loop
      vertex 12 25 0
      vertex 12 0 1.25
      vertex 12 0 0
    endloop
  endfacet
  facet normal 0 1 0
    outer loop
      vertex 12 25 1.25
      vertex 12 25 0
      vertex 2 25 1.25
    endloop
  endfacet
  facet normal 0 1 -0
    outer loop
      vertex 2 25 1.25
      vertex 0 25 9.25
      vertex 2 25 9.25
    endloop
  endfacet
  facet normal 0 1 0
    outer loop
      vertex 2 25 1.25
      vertex 0 25 0
      vertex 0 25 9.25
    endloop
  endfacet
  facet normal 0 1 0
    outer loop
      vertex 0 25 0
      vertex 2 25 1.25
      vertex 12 25 0
    endloop
  endfacet
  facet normal 0 0 -1
    outer loop
      vertex 0 0 0
      vertex 12 25 0
      vertex 12 0 0
    endloop
  endfacet
  facet normal -0 0 -1
    outer loop
      vertex 12 25 0
      vertex 0 0 0
      vertex 0 25 0
    endloop
  endfacet
  facet normal 0 -1 0
    outer loop
      vertex 0 0 9.25
      vertex 2 0 1.25
      vertex 2 0 9.25
    endloop
  endfacet
  facet normal 0 -1 0
    outer loop
      vertex 0 0 0
      vertex 2 0 1.25
      vertex 0 0 9.25
    endloop
  endfacet
  facet normal 0 -1 0
    outer loop
      vertex 12 0 0
      vertex 2 0 1.25
      vertex 0 0 0
    endloop
  endfacet
  facet normal 0 -1 0
    outer loop
      vertex 2 0 1.25
      vertex 12 0 0
      vertex 12 0 1.25
    endloop
  endfacet
  facet normal -0 0 1
    outer loop
      vertex 0 25 9.25
      vertex 2 0 9.25
      vertex 2 25 9.25
    endloop
  endfacet
  facet normal 0 0 1
    outer loop
      vertex 2 0 9.25
      vertex 0 25 9.25
      vertex 0 0 9.25
    endloop
  endfacet
  facet normal 1 -0 0
    outer loop
      vertex 2 0 9.25
      vertex 2 25 1.25
      vertex 2 25 9.25
    endloop
  endfacet
  facet normal 1 0 0
    outer loop
      vertex 2 25 1.25
      vertex 2 0 9.25
      vertex 2 0 1.25
    endloop
  endfacet
endsolid OpenSCAD_Model
