solid OpenSCAD_Model
  facet normal -1 0 0
    outer loop
      vertex 0 0 0
      vertex 0 6 2.5
      vertex 0 6 0
    endloop
  endfacet
  facet normal -1 -0 0
    outer loop
      vertex 0 6 2.5
      vertex 0 0 0
      vertex 0 2 9.75
    endloop
  endfacet
  facet normal -1 0 0
    outer loop
      vertex 0 0 11.75
      vertex 0 2 9.75
      vertex 0 0 0
    endloop
  endfacet
  facet normal -1 0 0
    outer loop
      vertex 0 2 9.75
      vertex 0 0 11.75
      vertex 0 2 11.75
    endloop
  endfacet
  facet normal -1 0 0
    outer loop
      vertex 0 30 2.5
      vertex 0 28 9.75
      vertex 0 30 11.75
    endloop
  endfacet
  facet normal -1 0 0
    outer loop
      vertex 0 6 2.5
      vertex 0 28 9.75
      vertex 0 30 2.5
    endloop
  endfacet
  facet normal -1 -0 0
    outer loop
      vertex 0 28 9.75
      vertex 0 6 2.5
      vertex 0 2 9.75
    endloop
  endfacet
  facet normal -1 -0 0
    outer loop
      vertex 0 30 11.75
      vertex 0 28 9.75
      vertex 0 28 11.75
    endloop
  endfacet
  facet normal 0 0 1
    outer loop
      vertex 73 30 2
      vertex 76.5 30 2
      vertex 76.4724 30.4387 2
    endloop
  endfacet
  facet normal 0 0 1
    outer loop
      vertex 73 30 2
      vertex 76.4724 30.4387 2
      vertex 76.39 30.8704 2
    endloop
  endfacet
  facet normal 0 0 1
    outer loop
      vertex 76.5 30 2
      vertex 73 30 2
      vertex 76.4724 29.5613 2
    endloop
  endfacet
  facet normal 0 0 1
    outer loop
      vertex 73 30 2
      vertex 76.39 30.8704 2
      vertex 76.2542 31.2884 2
    endloop
  endfacet
  facet normal 0 0 1
    outer loop
      vertex 76.4724 29.5613 2
      vertex 73 30 2
      vertex 76.39 29.1296 2
    endloop
  endfacet
  facet normal 0 0 1
    outer loop
      vertex 73 30 2
      vertex 76.2542 31.2884 2
      vertex 76.0671 31.6861 2
    endloop
  endfacet
  facet normal 0 0 1
    outer loop
      vertex 76.39 29.1296 2
      vertex 73 30 2
      vertex 76.2542 28.7116 2
    endloop
  endfacet
  facet normal 0 0 1
    outer loop
      vertex 73 30 2
      vertex 76.0671 31.6861 2
      vertex 75.8316 32.0572 2
    endloop
  endfacet
  facet normal 0 0 1
    outer loop
      vertex 76.2542 28.7116 2
      vertex 73 30 2
      vertex 76.0671 28.3139 2
    endloop
  endfacet
  facet normal 0 0 1
    outer loop
      vertex 73 30 2
      vertex 75.8316 32.0572 2
      vertex 75.5514 32.3959 2
    endloop
  endfacet
  facet normal 0 0 1
    outer loop
      vertex 76.0671 28.3139 2
      vertex 73 30 2
      vertex 75.8316 27.9428 2
    endloop
  endfacet
  facet normal 0 0 1
    outer loop
      vertex 73 30 2
      vertex 75.5514 32.3959 2
      vertex 75.231 32.6968 2
    endloop
  endfacet
  facet normal -0 0 1
    outer loop
      vertex 73 28 2
      vertex 75.8316 27.9428 2
      vertex 73 30 2
    endloop
  endfacet
  facet normal 0 0 1
    outer loop
      vertex 73 30 2
      vertex 75.231 32.6968 2
      vertex 74.8754 32.9551 2
    endloop
  endfacet
  facet normal 0 0 1
    outer loop
      vertex 75.8316 27.9428 2
      vertex 73 28 2
      vertex 75.5514 27.6041 2
    endloop
  endfacet
  facet normal 0 0 1
    outer loop
      vertex 75.5514 27.6041 2
      vertex 73 28 2
      vertex 75.231 27.3032 2
    endloop
  endfacet
  facet normal 0 0 1
    outer loop
      vertex 73 30 2
      vertex 74.8754 32.9551 2
      vertex 74.4902 33.1669 2
    endloop
  endfacet
  facet normal 0 0 1
    outer loop
      vertex 73 2 2
      vertex 75 27 2
      vertex 74.7938 27 2
    endloop
  endfacet
  facet normal 0 0 1
    outer loop
      vertex 75.231 27.3032 2
      vertex 73 28 2
      vertex 74.8754 27.0449 2
    endloop
  endfacet
  facet normal 0 0 1
    outer loop
      vertex 73 30 2
      vertex 74.4902 33.1669 2
      vertex 74.0816 33.3287 2
    endloop
  endfacet
  facet normal 0 0 1
    outer loop
      vertex 73 30 2
      vertex 74.0816 33.3287 2
      vertex 73.6558 33.438 2
    endloop
  endfacet
  facet normal 0 0 1
    outer loop
      vertex 73 30 2
      vertex 73.6558 33.438 2
      vertex 73.2198 33.4931 2
    endloop
  endfacet
  facet normal 0 0 1
    outer loop
      vertex 74.8754 27.0449 2
      vertex 73 28 2
      vertex 74.7938 27 2
    endloop
  endfacet
  facet normal 0 0 1
    outer loop
      vertex 73 2 2
      vertex 74.7938 27 2
      vertex 73 28 2
    endloop
  endfacet
  facet normal 0 0 1
    outer loop
      vertex 75 27 2
      vertex 73 2 2
      vertex 75 0 2
    endloop
  endfacet
  facet normal 0 0 1
    outer loop
      vertex 75 0 2
      vertex 73 2 2
      vertex 73 0 2
    endloop
  endfacet
  facet normal 0 0 1
    outer loop
      vertex 73 28 2
      vertex 47.5037 15 2
      vertex 73 2 2
    endloop
  endfacet
  facet normal 0 0 1
    outer loop
      vertex 73 28 2
      vertex 47.4889 15.4712 2
      vertex 47.5037 15 2
    endloop
  endfacet
  facet normal 0 0 1
    outer loop
      vertex 73 28 2
      vertex 47.4445 15.9405 2
      vertex 47.4889 15.4712 2
    endloop
  endfacet
  facet normal 0 0 1
    outer loop
      vertex 73 28 2
      vertex 47.3708 16.4061 2
      vertex 47.4445 15.9405 2
    endloop
  endfacet
  facet normal 0 0 1
    outer loop
      vertex 73 28 2
      vertex 47.268 16.8661 2
      vertex 47.3708 16.4061 2
    endloop
  endfacet
  facet normal 0 0 1
    outer loop
      vertex 73 28 2
      vertex 47.1364 17.3188 2
      vertex 47.268 16.8661 2
    endloop
  endfacet
  facet normal 0 0 1
    outer loop
      vertex 73 28 2
      vertex 46.9768 17.7623 2
      vertex 47.1364 17.3188 2
    endloop
  endfacet
  facet normal 0 0 1
    outer loop
      vertex 73 28 2
      vertex 46.7896 18.1949 2
      vertex 46.9768 17.7623 2
    endloop
  endfacet
  facet normal 0 0 1
    outer loop
      vertex 73 28 2
      vertex 46.5755 18.6149 2
      vertex 46.7896 18.1949 2
    endloop
  endfacet
  facet normal 0 0 1
    outer loop
      vertex 73 28 2
      vertex 46.3356 19.0207 2
      vertex 46.5755 18.6149 2
    endloop
  endfacet
  facet normal 0 0 1
    outer loop
      vertex 73 28 2
      vertex 46.0706 19.4106 2
      vertex 46.3356 19.0207 2
    endloop
  endfacet
  facet normal 0 0 1
    outer loop
      vertex 73 28 2
      vertex 45.7817 19.783 2
      vertex 46.0706 19.4106 2
    endloop
  endfacet
  facet normal 0 0 1
    outer loop
      vertex 73 28 2
      vertex 45.47 20.1366 2
      vertex 45.7817 19.783 2
    endloop
  endfacet
  facet normal 0 0 1
    outer loop
      vertex 73 28 2
      vertex 45.1366 20.47 2
      vertex 45.47 20.1366 2
    endloop
  endfacet
  facet normal 0 0 1
    outer loop
      vertex 73 28 2
      vertex 44.783 20.7817 2
      vertex 45.1366 20.47 2
    endloop
  endfacet
  facet normal 0 0 1
    outer loop
      vertex 73 28 2
      vertex 44.4106 21.0706 2
      vertex 44.783 20.7817 2
    endloop
  endfacet
  facet normal 0 0 1
    outer loop
      vertex 73 28 2
      vertex 44.0207 21.3356 2
      vertex 44.4106 21.0706 2
    endloop
  endfacet
  facet normal 0 0 1
    outer loop
      vertex 73 28 2
      vertex 43.6149 21.5755 2
      vertex 44.0207 21.3356 2
    endloop
  endfacet
  facet normal 0 0 1
    outer loop
      vertex 73 28 2
      vertex 43.1949 21.7896 2
      vertex 43.6149 21.5755 2
    endloop
  endfacet
  facet normal 0 0 1
    outer loop
      vertex 73 28 2
      vertex 42.7623 21.9768 2
      vertex 43.1949 21.7896 2
    endloop
  endfacet
  facet normal 0 0 1
    outer loop
      vertex 73 28 2
      vertex 42.3188 22.1364 2
      vertex 42.7623 21.9768 2
    endloop
  endfacet
  facet normal 0 0 1
    outer loop
      vertex 73 28 2
      vertex 41.8661 22.268 2
      vertex 42.3188 22.1364 2
    endloop
  endfacet
  facet normal 0 0 1
    outer loop
      vertex 73 28 2
      vertex 41.4061 22.3708 2
      vertex 41.8661 22.268 2
    endloop
  endfacet
  facet normal 0 0 1
    outer loop
      vertex 73 28 2
      vertex 40.9405 22.4445 2
      vertex 41.4061 22.3708 2
    endloop
  endfacet
  facet normal 0 0 1
    outer loop
      vertex 73 28 2
      vertex 40.4712 22.4889 2
      vertex 40.9405 22.4445 2
    endloop
  endfacet
  facet normal 0 0 1
    outer loop
      vertex 73 28 2
      vertex 40 22.5037 2
      vertex 40.4712 22.4889 2
    endloop
  endfacet
  facet normal -0 0 1
    outer loop
      vertex 2 28 2
      vertex 40 22.5037 2
      vertex 73 28 2
    endloop
  endfacet
  facet normal 0 0 1
    outer loop
      vertex 40 22.5037 2
      vertex 2 28 2
      vertex 39.5288 22.4889 2
    endloop
  endfacet
  facet normal 0 0 1
    outer loop
      vertex 39.5288 22.4889 2
      vertex 2 28 2
      vertex 39.0595 22.4445 2
    endloop
  endfacet
  facet normal 0 0 1
    outer loop
      vertex 32.5111 15.4712 2
      vertex 2 28 2
      vertex 32.4963 15 2
    endloop
  endfacet
  facet normal 0 0 1
    outer loop
      vertex 32.5555 15.9405 2
      vertex 2 28 2
      vertex 32.5111 15.4712 2
    endloop
  endfacet
  facet normal 0 0 1
    outer loop
      vertex 32.6292 16.4061 2
      vertex 2 28 2
      vertex 32.5555 15.9405 2
    endloop
  endfacet
  facet normal 0 0 1
    outer loop
      vertex 32.732 16.8661 2
      vertex 2 28 2
      vertex 32.6292 16.4061 2
    endloop
  endfacet
  facet normal 0 0 1
    outer loop
      vertex 32.8636 17.3188 2
      vertex 2 28 2
      vertex 32.732 16.8661 2
    endloop
  endfacet
  facet normal 0 0 1
    outer loop
      vertex 33.0232 17.7623 2
      vertex 2 28 2
      vertex 32.8636 17.3188 2
    endloop
  endfacet
  facet normal 0 0 1
    outer loop
      vertex 33.2104 18.1949 2
      vertex 2 28 2
      vertex 33.0232 17.7623 2
    endloop
  endfacet
  facet normal 0 0 1
    outer loop
      vertex 33.4245 18.6149 2
      vertex 2 28 2
      vertex 33.2104 18.1949 2
    endloop
  endfacet
  facet normal 0 0 1
    outer loop
      vertex 33.6644 19.0207 2
      vertex 2 28 2
      vertex 33.4245 18.6149 2
    endloop
  endfacet
  facet normal 0 0 1
    outer loop
      vertex 33.9294 19.4106 2
      vertex 2 28 2
      vertex 33.6644 19.0207 2
    endloop
  endfacet
  facet normal 0 0 1
    outer loop
      vertex 34.2183 19.783 2
      vertex 2 28 2
      vertex 33.9294 19.4106 2
    endloop
  endfacet
  facet normal 0 0 1
    outer loop
      vertex 34.53 20.1366 2
      vertex 2 28 2
      vertex 34.2183 19.783 2
    endloop
  endfacet
  facet normal 0 0 1
    outer loop
      vertex 34.8634 20.47 2
      vertex 2 28 2
      vertex 34.53 20.1366 2
    endloop
  endfacet
  facet normal 0 0 1
    outer loop
      vertex 35.217 20.7817 2
      vertex 2 28 2
      vertex 34.8634 20.47 2
    endloop
  endfacet
  facet normal 0 0 1
    outer loop
      vertex 35.5894 21.0706 2
      vertex 2 28 2
      vertex 35.217 20.7817 2
    endloop
  endfacet
  facet normal 0 0 1
    outer loop
      vertex 35.9793 21.3356 2
      vertex 2 28 2
      vertex 35.5894 21.0706 2
    endloop
  endfacet
  facet normal 0 0 1
    outer loop
      vertex 36.3851 21.5755 2
      vertex 2 28 2
      vertex 35.9793 21.3356 2
    endloop
  endfacet
  facet normal 0 0 1
    outer loop
      vertex 36.8051 21.7896 2
      vertex 2 28 2
      vertex 36.3851 21.5755 2
    endloop
  endfacet
  facet normal 0 0 1
    outer loop
      vertex 37.2377 21.9768 2
      vertex 2 28 2
      vertex 36.8051 21.7896 2
    endloop
  endfacet
  facet normal 0 0 1
    outer loop
      vertex 37.6812 22.1364 2
      vertex 2 28 2
      vertex 37.2377 21.9768 2
    endloop
  endfacet
  facet normal 0 0 1
    outer loop
      vertex 38.1339 22.268 2
      vertex 2 28 2
      vertex 37.6812 22.1364 2
    endloop
  endfacet
  facet normal 0 0 1
    outer loop
      vertex 38.5939 22.3708 2
      vertex 2 28 2
      vertex 38.1339 22.268 2
    endloop
  endfacet
  facet normal 0 0 1
    outer loop
      vertex 39.0595 22.4445 2
      vertex 2 28 2
      vertex 38.5939 22.3708 2
    endloop
  endfacet
  facet normal -0 0 1
    outer loop
      vertex 72.7802 33.4931 2
      vertex 73 30 2
      vertex 73.2198 33.4931 2
    endloop
  endfacet
  facet normal -0 0 1
    outer loop
      vertex 72.3442 33.438 2
      vertex 73 30 2
      vertex 72.7802 33.4931 2
    endloop
  endfacet
  facet normal -0 0 1
    outer loop
      vertex 71.9184 33.3287 2
      vertex 73 30 2
      vertex 72.3442 33.438 2
    endloop
  endfacet
  facet normal -0 0 1
    outer loop
      vertex 71.5098 33.1669 2
      vertex 73 30 2
      vertex 71.9184 33.3287 2
    endloop
  endfacet
  facet normal -0 0 1
    outer loop
      vertex 71.1246 32.9551 2
      vertex 73 30 2
      vertex 71.5098 33.1669 2
    endloop
  endfacet
  facet normal -0 0 1
    outer loop
      vertex 70.769 32.6968 2
      vertex 73 30 2
      vertex 71.1246 32.9551 2
    endloop
  endfacet
  facet normal -0 0 1
    outer loop
      vertex 70.4486 32.3959 2
      vertex 73 30 2
      vertex 70.769 32.6968 2
    endloop
  endfacet
  facet normal -0 0 1
    outer loop
      vertex 70.1684 32.0572 2
      vertex 73 30 2
      vertex 70.4486 32.3959 2
    endloop
  endfacet
  facet normal -0 0 1
    outer loop
      vertex 69.9329 31.6861 2
      vertex 73 30 2
      vertex 70.1684 32.0572 2
    endloop
  endfacet
  facet normal -0 0 1
    outer loop
      vertex 69.7458 31.2884 2
      vertex 73 30 2
      vertex 69.9329 31.6861 2
    endloop
  endfacet
  facet normal -0 0 1
    outer loop
      vertex 69.61 30.8704 2
      vertex 73 30 2
      vertex 69.7458 31.2884 2
    endloop
  endfacet
  facet normal -0 0 1
    outer loop
      vertex 69.5276 30.4387 2
      vertex 73 30 2
      vertex 69.61 30.8704 2
    endloop
  endfacet
  facet normal 0 0 1
    outer loop
      vertex 73 30 2
      vertex 69.5276 30.4387 2
      vertex 69.5 30 2
    endloop
  endfacet
  facet normal -0 0 1
    outer loop
      vertex 47.4889 14.5288 2
      vertex 73 2 2
      vertex 47.5037 15 2
    endloop
  endfacet
  facet normal -0 0 1
    outer loop
      vertex 47.4445 14.0595 2
      vertex 73 2 2
      vertex 47.4889 14.5288 2
    endloop
  endfacet
  facet normal -0 0 1
    outer loop
      vertex 47.3708 13.5939 2
      vertex 73 2 2
      vertex 47.4445 14.0595 2
    endloop
  endfacet
  facet normal -0 0 1
    outer loop
      vertex 47.268 13.1339 2
      vertex 73 2 2
      vertex 47.3708 13.5939 2
    endloop
  endfacet
  facet normal -0 0 1
    outer loop
      vertex 47.1364 12.6812 2
      vertex 73 2 2
      vertex 47.268 13.1339 2
    endloop
  endfacet
  facet normal -0 0 1
    outer loop
      vertex 46.9768 12.2377 2
      vertex 73 2 2
      vertex 47.1364 12.6812 2
    endloop
  endfacet
  facet normal -0 0 1
    outer loop
      vertex 46.7896 11.8051 2
      vertex 73 2 2
      vertex 46.9768 12.2377 2
    endloop
  endfacet
  facet normal -0 0 1
    outer loop
      vertex 46.5755 11.3851 2
      vertex 73 2 2
      vertex 46.7896 11.8051 2
    endloop
  endfacet
  facet normal -0 0 1
    outer loop
      vertex 46.3356 10.9793 2
      vertex 73 2 2
      vertex 46.5755 11.3851 2
    endloop
  endfacet
  facet normal -0 0 1
    outer loop
      vertex 46.0706 10.5894 2
      vertex 73 2 2
      vertex 46.3356 10.9793 2
    endloop
  endfacet
  facet normal -0 0 1
    outer loop
      vertex 45.7817 10.217 2
      vertex 73 2 2
      vertex 46.0706 10.5894 2
    endloop
  endfacet
  facet normal -0 0 1
    outer loop
      vertex 45.47 9.86336 2
      vertex 73 2 2
      vertex 45.7817 10.217 2
    endloop
  endfacet
  facet normal -0 0 1
    outer loop
      vertex 45.1366 9.53004 2
      vertex 73 2 2
      vertex 45.47 9.86336 2
    endloop
  endfacet
  facet normal -0 0 1
    outer loop
      vertex 44.783 9.2183 2
      vertex 73 2 2
      vertex 45.1366 9.53004 2
    endloop
  endfacet
  facet normal -0 0 1
    outer loop
      vertex 44.4106 8.92938 2
      vertex 73 2 2
      vertex 44.783 9.2183 2
    endloop
  endfacet
  facet normal -0 0 1
    outer loop
      vertex 44.0207 8.66441 2
      vertex 73 2 2
      vertex 44.4106 8.92938 2
    endloop
  endfacet
  facet normal -0 0 1
    outer loop
      vertex 43.6149 8.42445 2
      vertex 73 2 2
      vertex 44.0207 8.66441 2
    endloop
  endfacet
  facet normal -0 0 1
    outer loop
      vertex 43.1949 8.21045 2
      vertex 73 2 2
      vertex 43.6149 8.42445 2
    endloop
  endfacet
  facet normal -0 0 1
    outer loop
      vertex 42.7623 8.02323 2
      vertex 73 2 2
      vertex 43.1949 8.21045 2
    endloop
  endfacet
  facet normal -0 0 1
    outer loop
      vertex 42.3188 7.86355 2
      vertex 73 2 2
      vertex 42.7623 8.02323 2
    endloop
  endfacet
  facet normal -0 0 1
    outer loop
      vertex 41.8661 7.73204 2
      vertex 73 2 2
      vertex 42.3188 7.86355 2
    endloop
  endfacet
  facet normal -0 0 1
    outer loop
      vertex 41.4061 7.62921 2
      vertex 73 2 2
      vertex 41.8661 7.73204 2
    endloop
  endfacet
  facet normal -0 0 1
    outer loop
      vertex 40.9405 7.55547 2
      vertex 73 2 2
      vertex 41.4061 7.62921 2
    endloop
  endfacet
  facet normal -0 0 1
    outer loop
      vertex 40.4712 7.5111 2
      vertex 73 2 2
      vertex 40.9405 7.55547 2
    endloop
  endfacet
  facet normal -0 0 1
    outer loop
      vertex 40 7.4963 2
      vertex 73 2 2
      vertex 40.4712 7.5111 2
    endloop
  endfacet
  facet normal 0 0 1
    outer loop
      vertex 2 2 2
      vertex 40 7.4963 2
      vertex 39.5288 7.5111 2
    endloop
  endfacet
  facet normal 0 0 1
    outer loop
      vertex 2 2 2
      vertex 39.5288 7.5111 2
      vertex 39.0595 7.55547 2
    endloop
  endfacet
  facet normal 0 0 1
    outer loop
      vertex 2 2 2
      vertex 39.0595 7.55547 2
      vertex 38.5939 7.62921 2
    endloop
  endfacet
  facet normal 0 0 1
    outer loop
      vertex 2 2 2
      vertex 32.4963 15 2
      vertex 2 28 2
    endloop
  endfacet
  facet normal 0 0 1
    outer loop
      vertex 32.4963 15 2
      vertex 2 2 2
      vertex 32.5111 14.5288 2
    endloop
  endfacet
  facet normal 0 0 1
    outer loop
      vertex 32.5111 14.5288 2
      vertex 2 2 2
      vertex 32.5555 14.0595 2
    endloop
  endfacet
  facet normal 0 0 1
    outer loop
      vertex 32.5555 14.0595 2
      vertex 2 2 2
      vertex 32.6292 13.5939 2
    endloop
  endfacet
  facet normal 0 0 1
    outer loop
      vertex 32.6292 13.5939 2
      vertex 2 2 2
      vertex 32.732 13.1339 2
    endloop
  endfacet
  facet normal 0 0 1
    outer loop
      vertex 32.732 13.1339 2
      vertex 2 2 2
      vertex 32.8636 12.6812 2
    endloop
  endfacet
  facet normal 0 0 1
    outer loop
      vertex 32.8636 12.6812 2
      vertex 2 2 2
      vertex 33.0232 12.2377 2
    endloop
  endfacet
  facet normal 0 0 1
    outer loop
      vertex 33.0232 12.2377 2
      vertex 2 2 2
      vertex 33.2104 11.8051 2
    endloop
  endfacet
  facet normal 0 0 1
    outer loop
      vertex 33.2104 11.8051 2
      vertex 2 2 2
      vertex 33.4245 11.3851 2
    endloop
  endfacet
  facet normal 0 0 1
    outer loop
      vertex 33.4245 11.3851 2
      vertex 2 2 2
      vertex 33.6644 10.9793 2
    endloop
  endfacet
  facet normal 0 0 1
    outer loop
      vertex 33.6644 10.9793 2
      vertex 2 2 2
      vertex 33.9294 10.5894 2
    endloop
  endfacet
  facet normal 0 0 1
    outer loop
      vertex 33.9294 10.5894 2
      vertex 2 2 2
      vertex 34.2183 10.217 2
    endloop
  endfacet
  facet normal 0 0 1
    outer loop
      vertex 34.2183 10.217 2
      vertex 2 2 2
      vertex 34.53 9.86336 2
    endloop
  endfacet
  facet normal 0 0 1
    outer loop
      vertex 34.53 9.86336 2
      vertex 2 2 2
      vertex 34.8634 9.53004 2
    endloop
  endfacet
  facet normal 0 0 1
    outer loop
      vertex 34.8634 9.53004 2
      vertex 2 2 2
      vertex 35.217 9.2183 2
    endloop
  endfacet
  facet normal 0 0 1
    outer loop
      vertex 35.217 9.2183 2
      vertex 2 2 2
      vertex 35.5894 8.92938 2
    endloop
  endfacet
  facet normal 0 0 1
    outer loop
      vertex 35.5894 8.92938 2
      vertex 2 2 2
      vertex 35.9793 8.66441 2
    endloop
  endfacet
  facet normal 0 0 1
    outer loop
      vertex 40 7.4963 2
      vertex 2 2 2
      vertex 73 2 2
    endloop
  endfacet
  facet normal 0 0 1
    outer loop
      vertex 38.1339 7.73204 2
      vertex 2 2 2
      vertex 38.5939 7.62921 2
    endloop
  endfacet
  facet normal 0 0 1
    outer loop
      vertex 37.6812 7.86355 2
      vertex 2 2 2
      vertex 38.1339 7.73204 2
    endloop
  endfacet
  facet normal 0 0 1
    outer loop
      vertex 37.2377 8.02323 2
      vertex 2 2 2
      vertex 37.6812 7.86355 2
    endloop
  endfacet
  facet normal 0 0 1
    outer loop
      vertex 36.8051 8.21045 2
      vertex 2 2 2
      vertex 37.2377 8.02323 2
    endloop
  endfacet
  facet normal 0 0 1
    outer loop
      vertex 36.3851 8.42445 2
      vertex 2 2 2
      vertex 36.8051 8.21045 2
    endloop
  endfacet
  facet normal 0 0 1
    outer loop
      vertex 35.9793 8.66441 2
      vertex 2 2 2
      vertex 36.3851 8.42445 2
    endloop
  endfacet
  facet normal 1 -0 0
    outer loop
      vertex 73 0 9.75
      vertex 73 2 2
      vertex 73 2 9.75
    endloop
  endfacet
  facet normal 1 0 0
    outer loop
      vertex 73 2 2
      vertex 73 0 9.75
      vertex 73 0 2
    endloop
  endfacet
  facet normal 1 -0 0
    outer loop
      vertex 73 28 9.75
      vertex 73 30 2
      vertex 73 30 9.75
    endloop
  endfacet
  facet normal 1 0 0
    outer loop
      vertex 73 30 2
      vertex 73 28 9.75
      vertex 73 28 2
    endloop
  endfacet
  facet normal 0 1 -0
    outer loop
      vertex 69.5 30 2
      vertex 2 30 9.75
      vertex 73 30 9.75
    endloop
  endfacet
  facet normal 0 1 0
    outer loop
      vertex 69.5 30 2
      vertex 73 30 9.75
      vertex 73 30 2
    endloop
  endfacet
  facet normal 0 1 -0
    outer loop
      vertex 69.5 30 0
      vertex 2 30 9.75
      vertex 69.5 30 2
    endloop
  endfacet
  facet normal 0 1 0
    outer loop
      vertex 2 30 9.75
      vertex 69.5 30 0
      vertex 0 30 2.5
    endloop
  endfacet
  facet normal 0 1 0
    outer loop
      vertex -5 30 0
      vertex 0 30 2.5
      vertex 69.5 30 0
    endloop
  endfacet
  facet normal 0 1 0
    outer loop
      vertex 0 30 2.5
      vertex -5 30 0
      vertex -5 30 2.5
    endloop
  endfacet
  facet normal 0 1 -0
    outer loop
      vertex 2 30 9.75
      vertex 0 30 11.75
      vertex 2 30 11.75
    endloop
  endfacet
  facet normal 0 1 0
    outer loop
      vertex 0 30 11.75
      vertex 2 30 9.75
      vertex 0 30 2.5
    endloop
  endfacet
  facet normal 0 0 -1
    outer loop
      vertex 75 0 0
      vertex 74.7938 27 0
      vertex 75 27 0
    endloop
  endfacet
  facet normal 0 0 -1
    outer loop
      vertex 47.4889 14.5288 0
      vertex 74.7938 27 0
      vertex 75 0 0
    endloop
  endfacet
  facet normal 0 0 -1
    outer loop
      vertex 74.7938 27 0
      vertex 69.5 30 0
      vertex 74.4902 33.1669 0
    endloop
  endfacet
  facet normal -0 0 -1
    outer loop
      vertex 74.4902 33.1669 0
      vertex 69.5 30 0
      vertex 74.0816 33.3287 0
    endloop
  endfacet
  facet normal -0 0 -1
    outer loop
      vertex 74.0816 33.3287 0
      vertex 69.5 30 0
      vertex 73.6558 33.438 0
    endloop
  endfacet
  facet normal -0 0 -1
    outer loop
      vertex 73.6558 33.438 0
      vertex 69.5 30 0
      vertex 73.2198 33.4931 0
    endloop
  endfacet
  facet normal -0 0 -1
    outer loop
      vertex 73.2198 33.4931 0
      vertex 69.5 30 0
      vertex 72.7802 33.4931 0
    endloop
  endfacet
  facet normal 0 0 -1
    outer loop
      vertex 72.7802 33.4931 0
      vertex 69.5 30 0
      vertex 72.3442 33.438 0
    endloop
  endfacet
  facet normal 0 0 -1
    outer loop
      vertex 72.3442 33.438 0
      vertex 69.5 30 0
      vertex 71.9184 33.3287 0
    endloop
  endfacet
  facet normal 0 0 -1
    outer loop
      vertex 71.9184 33.3287 0
      vertex 69.5 30 0
      vertex 71.5098 33.1669 0
    endloop
  endfacet
  facet normal 0 0 -1
    outer loop
      vertex 71.5098 33.1669 0
      vertex 69.5 30 0
      vertex 71.1246 32.9551 0
    endloop
  endfacet
  facet normal 0 0 -1
    outer loop
      vertex 71.1246 32.9551 0
      vertex 69.5 30 0
      vertex 70.769 32.6968 0
    endloop
  endfacet
  facet normal 0 0 -1
    outer loop
      vertex 70.769 32.6968 0
      vertex 69.5 30 0
      vertex 70.4486 32.3959 0
    endloop
  endfacet
  facet normal 0 0 -1
    outer loop
      vertex 70.4486 32.3959 0
      vertex 69.5 30 0
      vertex 70.1684 32.0572 0
    endloop
  endfacet
  facet normal 0 0 -1
    outer loop
      vertex 70.1684 32.0572 0
      vertex 69.5 30 0
      vertex 69.9329 31.6861 0
    endloop
  endfacet
  facet normal 0 0 -1
    outer loop
      vertex 69.9329 31.6861 0
      vertex 69.5 30 0
      vertex 69.7458 31.2884 0
    endloop
  endfacet
  facet normal 0 0 -1
    outer loop
      vertex 69.7458 31.2884 0
      vertex 69.5 30 0
      vertex 69.61 30.8704 0
    endloop
  endfacet
  facet normal 0 0 -1
    outer loop
      vertex 69.61 30.8704 0
      vertex 69.5 30 0
      vertex 69.5276 30.4387 0
    endloop
  endfacet
  facet normal -0 0 -1
    outer loop
      vertex 74.7938 27 0
      vertex 47.4889 14.5288 0
      vertex 69.5 30 0
    endloop
  endfacet
  facet normal 0 0 -1
    outer loop
      vertex 69.5 30 0
      vertex 47.4889 14.5288 0
      vertex 47.5037 15 0
    endloop
  endfacet
  facet normal 0 0 -1
    outer loop
      vertex 75 0 0
      vertex 47.4445 14.0595 0
      vertex 47.4889 14.5288 0
    endloop
  endfacet
  facet normal 0 0 -1
    outer loop
      vertex 75 0 0
      vertex 47.3708 13.5939 0
      vertex 47.4445 14.0595 0
    endloop
  endfacet
  facet normal 0 0 -1
    outer loop
      vertex 75 0 0
      vertex 47.268 13.1339 0
      vertex 47.3708 13.5939 0
    endloop
  endfacet
  facet normal 0 0 -1
    outer loop
      vertex 75 0 0
      vertex 47.1364 12.6812 0
      vertex 47.268 13.1339 0
    endloop
  endfacet
  facet normal 0 0 -1
    outer loop
      vertex 75 0 0
      vertex 46.9768 12.2377 0
      vertex 47.1364 12.6812 0
    endloop
  endfacet
  facet normal 0 0 -1
    outer loop
      vertex 75 0 0
      vertex 46.7896 11.8051 0
      vertex 46.9768 12.2377 0
    endloop
  endfacet
  facet normal 0 0 -1
    outer loop
      vertex 75 0 0
      vertex 46.5755 11.3851 0
      vertex 46.7896 11.8051 0
    endloop
  endfacet
  facet normal 0 0 -1
    outer loop
      vertex 75 0 0
      vertex 46.3356 10.9793 0
      vertex 46.5755 11.3851 0
    endloop
  endfacet
  facet normal 0 0 -1
    outer loop
      vertex 75 0 0
      vertex 46.0706 10.5894 0
      vertex 46.3356 10.9793 0
    endloop
  endfacet
  facet normal 0 0 -1
    outer loop
      vertex 75 0 0
      vertex 45.7817 10.217 0
      vertex 46.0706 10.5894 0
    endloop
  endfacet
  facet normal 0 0 -1
    outer loop
      vertex 75 0 0
      vertex 45.47 9.86336 0
      vertex 45.7817 10.217 0
    endloop
  endfacet
  facet normal 0 0 -1
    outer loop
      vertex 75 0 0
      vertex 45.1366 9.53004 0
      vertex 45.47 9.86336 0
    endloop
  endfacet
  facet normal 0 0 -1
    outer loop
      vertex 75 0 0
      vertex 44.783 9.2183 0
      vertex 45.1366 9.53004 0
    endloop
  endfacet
  facet normal 0 0 -1
    outer loop
      vertex 75 0 0
      vertex 44.4106 8.92938 0
      vertex 44.783 9.2183 0
    endloop
  endfacet
  facet normal 0 0 -1
    outer loop
      vertex 75 0 0
      vertex 44.0207 8.66441 0
      vertex 44.4106 8.92938 0
    endloop
  endfacet
  facet normal 0 0 -1
    outer loop
      vertex 75 0 0
      vertex 43.6149 8.42445 0
      vertex 44.0207 8.66441 0
    endloop
  endfacet
  facet normal 0 0 -1
    outer loop
      vertex 75 0 0
      vertex 43.1949 8.21045 0
      vertex 43.6149 8.42445 0
    endloop
  endfacet
  facet normal 0 0 -1
    outer loop
      vertex 75 0 0
      vertex 42.7623 8.02323 0
      vertex 43.1949 8.21045 0
    endloop
  endfacet
  facet normal 0 0 -1
    outer loop
      vertex 75 0 0
      vertex 42.3188 7.86355 0
      vertex 42.7623 8.02323 0
    endloop
  endfacet
  facet normal 0 0 -1
    outer loop
      vertex 75 0 0
      vertex 41.8661 7.73204 0
      vertex 42.3188 7.86355 0
    endloop
  endfacet
  facet normal 0 0 -1
    outer loop
      vertex 75 0 0
      vertex 41.4061 7.62921 0
      vertex 41.8661 7.73204 0
    endloop
  endfacet
  facet normal 0 0 -1
    outer loop
      vertex 75 0 0
      vertex 40.9405 7.55547 0
      vertex 41.4061 7.62921 0
    endloop
  endfacet
  facet normal 0 0 -1
    outer loop
      vertex 75 0 0
      vertex 40.4712 7.5111 0
      vertex 40.9405 7.55547 0
    endloop
  endfacet
  facet normal 0 0 -1
    outer loop
      vertex 75 0 0
      vertex 40 7.4963 0
      vertex 40.4712 7.5111 0
    endloop
  endfacet
  facet normal 0 0 -1
    outer loop
      vertex 75 0 0
      vertex 39.5288 7.5111 0
      vertex 40 7.4963 0
    endloop
  endfacet
  facet normal 0 0 -1
    outer loop
      vertex 0 0 0
      vertex 39.5288 7.5111 0
      vertex 75 0 0
    endloop
  endfacet
  facet normal -0 0 -1
    outer loop
      vertex 39.5288 7.5111 0
      vertex 0 0 0
      vertex 39.0595 7.55547 0
    endloop
  endfacet
  facet normal -0 0 -1
    outer loop
      vertex 32.5555 14.0595 0
      vertex 0 6 0
      vertex 32.5111 14.5288 0
    endloop
  endfacet
  facet normal -0 0 -1
    outer loop
      vertex 32.6292 13.5939 0
      vertex 0 6 0
      vertex 32.5555 14.0595 0
    endloop
  endfacet
  facet normal -0 0 -1
    outer loop
      vertex 32.732 13.1339 0
      vertex 0 6 0
      vertex 32.6292 13.5939 0
    endloop
  endfacet
  facet normal -0 0 -1
    outer loop
      vertex 32.8636 12.6812 0
      vertex 0 6 0
      vertex 32.732 13.1339 0
    endloop
  endfacet
  facet normal -0 0 -1
    outer loop
      vertex 33.0232 12.2377 0
      vertex 0 6 0
      vertex 32.8636 12.6812 0
    endloop
  endfacet
  facet normal -0 0 -1
    outer loop
      vertex 33.2104 11.8051 0
      vertex 0 6 0
      vertex 33.0232 12.2377 0
    endloop
  endfacet
  facet normal -0 0 -1
    outer loop
      vertex 33.4245 11.3851 0
      vertex 0 6 0
      vertex 33.2104 11.8051 0
    endloop
  endfacet
  facet normal 0 0 -1
    outer loop
      vertex 0 6 0
      vertex 33.4245 11.3851 0
      vertex 0 0 0
    endloop
  endfacet
  facet normal -0 0 -1
    outer loop
      vertex 33.6644 10.9793 0
      vertex 0 0 0
      vertex 33.4245 11.3851 0
    endloop
  endfacet
  facet normal -0 0 -1
    outer loop
      vertex 33.9294 10.5894 0
      vertex 0 0 0
      vertex 33.6644 10.9793 0
    endloop
  endfacet
  facet normal -0 0 -1
    outer loop
      vertex 34.2183 10.217 0
      vertex 0 0 0
      vertex 33.9294 10.5894 0
    endloop
  endfacet
  facet normal -0 0 -1
    outer loop
      vertex 34.53 9.86336 0
      vertex 0 0 0
      vertex 34.2183 10.217 0
    endloop
  endfacet
  facet normal -0 0 -1
    outer loop
      vertex 34.8634 9.53004 0
      vertex 0 0 0
      vertex 34.53 9.86336 0
    endloop
  endfacet
  facet normal -0 0 -1
    outer loop
      vertex 35.217 9.2183 0
      vertex 0 0 0
      vertex 34.8634 9.53004 0
    endloop
  endfacet
  facet normal -0 0 -1
    outer loop
      vertex 35.5894 8.92938 0
      vertex 0 0 0
      vertex 35.217 9.2183 0
    endloop
  endfacet
  facet normal -0 0 -1
    outer loop
      vertex 35.9793 8.66441 0
      vertex 0 0 0
      vertex 35.5894 8.92938 0
    endloop
  endfacet
  facet normal -0 0 -1
    outer loop
      vertex 36.3851 8.42445 0
      vertex 0 0 0
      vertex 35.9793 8.66441 0
    endloop
  endfacet
  facet normal -0 0 -1
    outer loop
      vertex 36.8051 8.21045 0
      vertex 0 0 0
      vertex 36.3851 8.42445 0
    endloop
  endfacet
  facet normal -0 0 -1
    outer loop
      vertex 37.2377 8.02323 0
      vertex 0 0 0
      vertex 36.8051 8.21045 0
    endloop
  endfacet
  facet normal -0 0 -1
    outer loop
      vertex 37.6812 7.86355 0
      vertex 0 0 0
      vertex 37.2377 8.02323 0
    endloop
  endfacet
  facet normal -0 0 -1
    outer loop
      vertex 38.1339 7.73204 0
      vertex 0 0 0
      vertex 37.6812 7.86355 0
    endloop
  endfacet
  facet normal -0 0 -1
    outer loop
      vertex 38.5939 7.62921 0
      vertex 0 0 0
      vertex 38.1339 7.73204 0
    endloop
  endfacet
  facet normal -0 0 -1
    outer loop
      vertex 39.0595 7.55547 0
      vertex 0 0 0
      vertex 38.5939 7.62921 0
    endloop
  endfacet
  facet normal 0 0 -1
    outer loop
      vertex 76.4724 29.5613 0
      vertex 76.4724 30.4387 0
      vertex 76.5 30 0
    endloop
  endfacet
  facet normal 0 0 -1
    outer loop
      vertex 76.39 29.1296 0
      vertex 76.4724 30.4387 0
      vertex 76.4724 29.5613 0
    endloop
  endfacet
  facet normal 0 0 -1
    outer loop
      vertex 76.39 29.1296 0
      vertex 76.39 30.8704 0
      vertex 76.4724 30.4387 0
    endloop
  endfacet
  facet normal 0 0 -1
    outer loop
      vertex 76.2542 28.7116 0
      vertex 76.39 30.8704 0
      vertex 76.39 29.1296 0
    endloop
  endfacet
  facet normal 0 0 -1
    outer loop
      vertex 76.2542 28.7116 0
      vertex 76.2542 31.2884 0
      vertex 76.39 30.8704 0
    endloop
  endfacet
  facet normal 0 0 -1
    outer loop
      vertex 76.0671 28.3139 0
      vertex 76.2542 31.2884 0
      vertex 76.2542 28.7116 0
    endloop
  endfacet
  facet normal 0 0 -1
    outer loop
      vertex 76.0671 28.3139 0
      vertex 76.0671 31.6861 0
      vertex 76.2542 31.2884 0
    endloop
  endfacet
  facet normal 0 0 -1
    outer loop
      vertex 75.8316 27.9428 0
      vertex 76.0671 31.6861 0
      vertex 76.0671 28.3139 0
    endloop
  endfacet
  facet normal 0 0 -1
    outer loop
      vertex 75.8316 27.9428 0
      vertex 75.8316 32.0572 0
      vertex 76.0671 31.6861 0
    endloop
  endfacet
  facet normal 0 0 -1
    outer loop
      vertex 75.5514 27.6041 0
      vertex 75.8316 32.0572 0
      vertex 75.8316 27.9428 0
    endloop
  endfacet
  facet normal 0 0 -1
    outer loop
      vertex 75.5514 27.6041 0
      vertex 75.5514 32.3959 0
      vertex 75.8316 32.0572 0
    endloop
  endfacet
  facet normal 0 0 -1
    outer loop
      vertex 75.231 27.3032 0
      vertex 75.5514 32.3959 0
      vertex 75.5514 27.6041 0
    endloop
  endfacet
  facet normal 0 0 -1
    outer loop
      vertex 75.231 27.3032 0
      vertex 75.231 32.6968 0
      vertex 75.5514 32.3959 0
    endloop
  endfacet
  facet normal 0 0 -1
    outer loop
      vertex 74.7938 27 0
      vertex 75.231 27.3032 0
      vertex 74.8754 27.0449 0
    endloop
  endfacet
  facet normal -0 0 -1
    outer loop
      vertex 75.231 27.3032 0
      vertex 74.7938 27 0
      vertex 75.231 32.6968 0
    endloop
  endfacet
  facet normal -0 0 -1
    outer loop
      vertex 75.231 32.6968 0
      vertex 74.7938 27 0
      vertex 74.8754 32.9551 0
    endloop
  endfacet
  facet normal -0 0 -1
    outer loop
      vertex 74.8754 32.9551 0
      vertex 74.7938 27 0
      vertex 74.4902 33.1669 0
    endloop
  endfacet
  facet normal 0 0 -1
    outer loop
      vertex 47.4889 15.4712 0
      vertex 69.5 30 0
      vertex 47.5037 15 0
    endloop
  endfacet
  facet normal 0 0 -1
    outer loop
      vertex 47.4445 15.9405 0
      vertex 69.5 30 0
      vertex 47.4889 15.4712 0
    endloop
  endfacet
  facet normal 0 0 -1
    outer loop
      vertex 47.3708 16.4061 0
      vertex 69.5 30 0
      vertex 47.4445 15.9405 0
    endloop
  endfacet
  facet normal 0 0 -1
    outer loop
      vertex 47.268 16.8661 0
      vertex 69.5 30 0
      vertex 47.3708 16.4061 0
    endloop
  endfacet
  facet normal 0 0 -1
    outer loop
      vertex 47.1364 17.3188 0
      vertex 69.5 30 0
      vertex 47.268 16.8661 0
    endloop
  endfacet
  facet normal 0 0 -1
    outer loop
      vertex 46.9768 17.7623 0
      vertex 69.5 30 0
      vertex 47.1364 17.3188 0
    endloop
  endfacet
  facet normal 0 0 -1
    outer loop
      vertex 46.7896 18.1949 0
      vertex 69.5 30 0
      vertex 46.9768 17.7623 0
    endloop
  endfacet
  facet normal 0 0 -1
    outer loop
      vertex 46.5755 18.6149 0
      vertex 69.5 30 0
      vertex 46.7896 18.1949 0
    endloop
  endfacet
  facet normal 0 0 -1
    outer loop
      vertex 46.3356 19.0207 0
      vertex 69.5 30 0
      vertex 46.5755 18.6149 0
    endloop
  endfacet
  facet normal 0 0 -1
    outer loop
      vertex 46.0706 19.4106 0
      vertex 69.5 30 0
      vertex 46.3356 19.0207 0
    endloop
  endfacet
  facet normal 0 0 -1
    outer loop
      vertex 45.7817 19.783 0
      vertex 69.5 30 0
      vertex 46.0706 19.4106 0
    endloop
  endfacet
  facet normal 0 0 -1
    outer loop
      vertex 45.47 20.1366 0
      vertex 69.5 30 0
      vertex 45.7817 19.783 0
    endloop
  endfacet
  facet normal 0 0 -1
    outer loop
      vertex 45.1366 20.47 0
      vertex 69.5 30 0
      vertex 45.47 20.1366 0
    endloop
  endfacet
  facet normal 0 0 -1
    outer loop
      vertex 44.783 20.7817 0
      vertex 69.5 30 0
      vertex 45.1366 20.47 0
    endloop
  endfacet
  facet normal 0 0 -1
    outer loop
      vertex 44.4106 21.0706 0
      vertex 69.5 30 0
      vertex 44.783 20.7817 0
    endloop
  endfacet
  facet normal 0 0 -1
    outer loop
      vertex 44.0207 21.3356 0
      vertex 69.5 30 0
      vertex 44.4106 21.0706 0
    endloop
  endfacet
  facet normal 0 0 -1
    outer loop
      vertex 43.6149 21.5755 0
      vertex 69.5 30 0
      vertex 44.0207 21.3356 0
    endloop
  endfacet
  facet normal 0 0 -1
    outer loop
      vertex 43.1949 21.7896 0
      vertex 69.5 30 0
      vertex 43.6149 21.5755 0
    endloop
  endfacet
  facet normal 0 0 -1
    outer loop
      vertex 42.7623 21.9768 0
      vertex 69.5 30 0
      vertex 43.1949 21.7896 0
    endloop
  endfacet
  facet normal 0 0 -1
    outer loop
      vertex 42.3188 22.1364 0
      vertex 69.5 30 0
      vertex 42.7623 21.9768 0
    endloop
  endfacet
  facet normal 0 0 -1
    outer loop
      vertex 41.8661 22.268 0
      vertex 69.5 30 0
      vertex 42.3188 22.1364 0
    endloop
  endfacet
  facet normal 0 0 -1
    outer loop
      vertex 41.4061 22.3708 0
      vertex 69.5 30 0
      vertex 41.8661 22.268 0
    endloop
  endfacet
  facet normal 0 0 -1
    outer loop
      vertex 40.9405 22.4445 0
      vertex 69.5 30 0
      vertex 41.4061 22.3708 0
    endloop
  endfacet
  facet normal 0 0 -1
    outer loop
      vertex 40.4712 22.4889 0
      vertex 69.5 30 0
      vertex 40.9405 22.4445 0
    endloop
  endfacet
  facet normal 0 0 -1
    outer loop
      vertex 40 22.5037 0
      vertex 69.5 30 0
      vertex 40.4712 22.4889 0
    endloop
  endfacet
  facet normal 0 0 -1
    outer loop
      vertex 39.5288 22.4889 0
      vertex 69.5 30 0
      vertex 40 22.5037 0
    endloop
  endfacet
  facet normal 0 0 -1
    outer loop
      vertex -5 30 0
      vertex 39.5288 22.4889 0
      vertex 39.0595 22.4445 0
    endloop
  endfacet
  facet normal 0 0 -1
    outer loop
      vertex -5 30 0
      vertex 39.0595 22.4445 0
      vertex 38.5939 22.3708 0
    endloop
  endfacet
  facet normal 0 0 -1
    outer loop
      vertex -5 30 0
      vertex 38.5939 22.3708 0
      vertex 38.1339 22.268 0
    endloop
  endfacet
  facet normal -0 0 -1
    outer loop
      vertex 32.5111 14.5288 0
      vertex 0 6 0
      vertex 32.4963 15 0
    endloop
  endfacet
  facet normal -0 0 -1
    outer loop
      vertex 32.4963 15 0
      vertex 0 6 0
      vertex 32.5111 15.4712 0
    endloop
  endfacet
  facet normal -0 0 -1
    outer loop
      vertex 32.5111 15.4712 0
      vertex 0 6 0
      vertex 32.5555 15.9405 0
    endloop
  endfacet
  facet normal -0 0 -1
    outer loop
      vertex 32.5555 15.9405 0
      vertex 0 6 0
      vertex 32.6292 16.4061 0
    endloop
  endfacet
  facet normal -0 0 -1
    outer loop
      vertex 32.6292 16.4061 0
      vertex 0 6 0
      vertex 32.732 16.8661 0
    endloop
  endfacet
  facet normal 0 0 -1
    outer loop
      vertex -5 30 0
      vertex 32.732 16.8661 0
      vertex 0 6 0
    endloop
  endfacet
  facet normal 0 0 -1
    outer loop
      vertex 32.732 16.8661 0
      vertex -5 30 0
      vertex 32.8636 17.3188 0
    endloop
  endfacet
  facet normal 0 0 -1
    outer loop
      vertex 32.8636 17.3188 0
      vertex -5 30 0
      vertex 33.0232 17.7623 0
    endloop
  endfacet
  facet normal 0 0 -1
    outer loop
      vertex 33.0232 17.7623 0
      vertex -5 30 0
      vertex 33.2104 18.1949 0
    endloop
  endfacet
  facet normal 0 0 -1
    outer loop
      vertex 33.2104 18.1949 0
      vertex -5 30 0
      vertex 33.4245 18.6149 0
    endloop
  endfacet
  facet normal 0 0 -1
    outer loop
      vertex 33.4245 18.6149 0
      vertex -5 30 0
      vertex 33.6644 19.0207 0
    endloop
  endfacet
  facet normal 0 0 -1
    outer loop
      vertex 33.6644 19.0207 0
      vertex -5 30 0
      vertex 33.9294 19.4106 0
    endloop
  endfacet
  facet normal 0 0 -1
    outer loop
      vertex 33.9294 19.4106 0
      vertex -5 30 0
      vertex 34.2183 19.783 0
    endloop
  endfacet
  facet normal 0 0 -1
    outer loop
      vertex 34.2183 19.783 0
      vertex -5 30 0
      vertex 34.53 20.1366 0
    endloop
  endfacet
  facet normal 0 0 -1
    outer loop
      vertex 34.53 20.1366 0
      vertex -5 30 0
      vertex 34.8634 20.47 0
    endloop
  endfacet
  facet normal 0 0 -1
    outer loop
      vertex 34.8634 20.47 0
      vertex -5 30 0
      vertex 35.217 20.7817 0
    endloop
  endfacet
  facet normal 0 0 -1
    outer loop
      vertex 35.217 20.7817 0
      vertex -5 30 0
      vertex 35.5894 21.0706 0
    endloop
  endfacet
  facet normal 0 0 -1
    outer loop
      vertex 35.5894 21.0706 0
      vertex -5 30 0
      vertex 35.9793 21.3356 0
    endloop
  endfacet
  facet normal 0 0 -1
    outer loop
      vertex 35.9793 21.3356 0
      vertex -5 30 0
      vertex 36.3851 21.5755 0
    endloop
  endfacet
  facet normal 0 0 -1
    outer loop
      vertex 36.3851 21.5755 0
      vertex -5 30 0
      vertex 36.8051 21.7896 0
    endloop
  endfacet
  facet normal 0 0 -1
    outer loop
      vertex -5 30 0
      vertex 0 6 0
      vertex -5 6 0
    endloop
  endfacet
  facet normal 0 0 -1
    outer loop
      vertex 39.5288 22.4889 0
      vertex -5 30 0
      vertex 69.5 30 0
    endloop
  endfacet
  facet normal 0 0 -1
    outer loop
      vertex 37.6812 22.1364 0
      vertex -5 30 0
      vertex 38.1339 22.268 0
    endloop
  endfacet
  facet normal 0 0 -1
    outer loop
      vertex 37.2377 21.9768 0
      vertex -5 30 0
      vertex 37.6812 22.1364 0
    endloop
  endfacet
  facet normal 0 0 -1
    outer loop
      vertex 36.8051 21.7896 0
      vertex -5 30 0
      vertex 37.2377 21.9768 0
    endloop
  endfacet
  facet normal 0 -1 0
    outer loop
      vertex 0 0 11.75
      vertex 2 0 9.75
      vertex 2 0 11.75
    endloop
  endfacet
  facet normal 0 -1 0
    outer loop
      vertex 2 0 9.75
      vertex 73 0 2
      vertex 73 0 9.75
    endloop
  endfacet
  facet normal 0 -1 0
    outer loop
      vertex 0 0 0
      vertex 2 0 9.75
      vertex 0 0 11.75
    endloop
  endfacet
  facet normal 0 -1 0
    outer loop
      vertex 0 0 0
      vertex 73 0 2
      vertex 2 0 9.75
    endloop
  endfacet
  facet normal 0 -1 0
    outer loop
      vertex 75 0 0
      vertex 73 0 2
      vertex 0 0 0
    endloop
  endfacet
  facet normal 0 -1 0
    outer loop
      vertex 73 0 2
      vertex 75 0 0
      vertex 75 0 2
    endloop
  endfacet
  facet normal 1 -0 0
    outer loop
      vertex 2 2 9.75
      vertex 2 28 2
      vertex 2 28 9.75
    endloop
  endfacet
  facet normal 1 0 0
    outer loop
      vertex 2 28 2
      vertex 2 2 9.75
      vertex 2 2 2
    endloop
  endfacet
  facet normal -0 0 1
    outer loop
      vertex 0 28 9.75
      vertex 2 2 9.75
      vertex 2 28 9.75
    endloop
  endfacet
  facet normal 0 0 1
    outer loop
      vertex 2 2 9.75
      vertex 0 28 9.75
      vertex 0 2 9.75
    endloop
  endfacet
  facet normal -0 0 1
    outer loop
      vertex 2 30 9.75
      vertex 73 28 9.75
      vertex 73 30 9.75
    endloop
  endfacet
  facet normal 0 0 1
    outer loop
      vertex 73 28 9.75
      vertex 2 30 9.75
      vertex 2 28 9.75
    endloop
  endfacet
  facet normal -0 0 1
    outer loop
      vertex 2 2 9.75
      vertex 73 0 9.75
      vertex 73 2 9.75
    endloop
  endfacet
  facet normal 0 0 1
    outer loop
      vertex 73 0 9.75
      vertex 2 2 9.75
      vertex 2 0 9.75
    endloop
  endfacet
  facet normal 0 1 -0
    outer loop
      vertex 73 2 2
      vertex 2 2 9.75
      vertex 73 2 9.75
    endloop
  endfacet
  facet normal 0 1 0
    outer loop
      vertex 2 2 9.75
      vertex 73 2 2
      vertex 2 2 2
    endloop
  endfacet
  facet normal 0 -1 0
    outer loop
      vertex 2 28 2
      vertex 73 28 9.75
      vertex 2 28 9.75
    endloop
  endfacet
  facet normal 0 -1 -0
    outer loop
      vertex 73 28 9.75
      vertex 2 28 2
      vertex 73 28 2
    endloop
  endfacet
  facet normal -0 0 1
    outer loop
      vertex 0 2 11.75
      vertex 2 0 11.75
      vertex 2 2 11.75
    endloop
  endfacet
  facet normal 0 0 1
    outer loop
      vertex 2 0 11.75
      vertex 0 2 11.75
      vertex 0 0 11.75
    endloop
  endfacet
  facet normal 1 -0 0
    outer loop
      vertex 2 0 11.75
      vertex 2 2 9.75
      vertex 2 2 11.75
    endloop
  endfacet
  facet normal 1 0 0
    outer loop
      vertex 2 2 9.75
      vertex 2 0 11.75
      vertex 2 0 9.75
    endloop
  endfacet
  facet normal 0 1 -0
    outer loop
      vertex 2 2 9.75
      vertex 0 2 11.75
      vertex 2 2 11.75
    endloop
  endfacet
  facet normal 0 1 0
    outer loop
      vertex 0 2 11.75
      vertex 2 2 9.75
      vertex 0 2 9.75
    endloop
  endfacet
  facet normal -0 0 1
    outer loop
      vertex 0 30 11.75
      vertex 2 28 11.75
      vertex 2 30 11.75
    endloop
  endfacet
  facet normal 0 0 1
    outer loop
      vertex 2 28 11.75
      vertex 0 30 11.75
      vertex 0 28 11.75
    endloop
  endfacet
  facet normal 1 -0 0
    outer loop
      vertex 2 28 11.75
      vertex 2 30 9.75
      vertex 2 30 11.75
    endloop
  endfacet
  facet normal 1 0 0
    outer loop
      vertex 2 30 9.75
      vertex 2 28 11.75
      vertex 2 28 9.75
    endloop
  endfacet
  facet normal 0 -1 0
    outer loop
      vertex 0 28 9.75
      vertex 2 28 11.75
      vertex 0 28 11.75
    endloop
  endfacet
  facet normal 0 -1 -0
    outer loop
      vertex 2 28 11.75
      vertex 0 28 9.75
      vertex 2 28 9.75
    endloop
  endfacet
  facet normal -1 0 0
    outer loop
      vertex -5 6 0
      vertex -5 30 2.5
      vertex -5 30 0
    endloop
  endfacet
  facet normal -1 -0 0
    outer loop
      vertex -5 30 2.5
      vertex -5 6 0
      vertex -5 6 2.5
    endloop
  endfacet
  facet normal -0 0 1
    outer loop
      vertex -5 30 2.5
      vertex 0 6 2.5
      vertex 0 30 2.5
    endloop
  endfacet
  facet normal 0 0 1
    outer loop
      vertex 0 6 2.5
      vertex -5 30 2.5
      vertex -5 6 2.5
    endloop
  endfacet
  facet normal 0 -1 0
    outer loop
      vertex -5 6 0
      vertex 0 6 2.5
      vertex -5 6 2.5
    endloop
  endfacet
  facet normal 0 -1 -0
    outer loop
      vertex 0 6 2.5
      vertex -5 6 0
      vertex 0 6 0
    endloop
  endfacet
  facet normal 0.998026 0.0628011 0
    outer loop
      vertex 76.5 30 2
      vertex 76.4724 30.4387 0
      vertex 76.4724 30.4387 2
    endloop
  endfacet
  facet normal 0.998026 0.0628011 0
    outer loop
      vertex 76.4724 30.4387 0
      vertex 76.5 30 2
      vertex 76.5 30 0
    endloop
  endfacet
  facet normal 0 1 -0
    outer loop
      vertex 73.2198 33.4931 0
      vertex 72.7802 33.4931 2
      vertex 73.2198 33.4931 2
    endloop
  endfacet
  facet normal 0 1 0
    outer loop
      vertex 72.7802 33.4931 2
      vertex 73.2198 33.4931 0
      vertex 72.7802 33.4931 0
    endloop
  endfacet
  facet normal 0.684553 0.728963 -0
    outer loop
      vertex 75.5514 32.3959 0
      vertex 75.231 32.6968 2
      vertex 75.5514 32.3959 2
    endloop
  endfacet
  facet normal 0.684553 0.728963 0
    outer loop
      vertex 75.231 32.6968 2
      vertex 75.5514 32.3959 0
      vertex 75.231 32.6968 0
    endloop
  endfacet
  facet normal -0.770515 0.637422 0
    outer loop
      vertex 70.1684 32.0572 0
      vertex 70.4486 32.3959 2
      vertex 70.4486 32.3959 0
    endloop
  endfacet
  facet normal -0.770515 0.637422 0
    outer loop
      vertex 70.4486 32.3959 2
      vertex 70.1684 32.0572 0
      vertex 70.1684 32.0572 2
    endloop
  endfacet
  facet normal -0.368126 0.929776 0
    outer loop
      vertex 71.9184 33.3287 0
      vertex 71.5098 33.1669 2
      vertex 71.9184 33.3287 2
    endloop
  endfacet
  facet normal -0.368126 0.929776 0
    outer loop
      vertex 71.5098 33.1669 2
      vertex 71.9184 33.3287 0
      vertex 71.5098 33.1669 0
    endloop
  endfacet
  facet normal 0.904823 0.425787 0
    outer loop
      vertex 76.2542 31.2884 2
      vertex 76.0671 31.6861 0
      vertex 76.0671 31.6861 2
    endloop
  endfacet
  facet normal 0.904823 0.425787 0
    outer loop
      vertex 76.0671 31.6861 0
      vertex 76.2542 31.2884 2
      vertex 76.2542 31.2884 0
    endloop
  endfacet
  facet normal 0.982288 0.187379 0
    outer loop
      vertex 76.4724 30.4387 2
      vertex 76.39 30.8704 0
      vertex 76.39 30.8704 2
    endloop
  endfacet
  facet normal 0.982288 0.187379 0
    outer loop
      vertex 76.39 30.8704 0
      vertex 76.4724 30.4387 2
      vertex 76.4724 30.4387 0
    endloop
  endfacet
  facet normal 0.844329 0.535825 0
    outer loop
      vertex 76.0671 31.6861 2
      vertex 75.8316 32.0572 0
      vertex 75.8316 32.0572 2
    endloop
  endfacet
  facet normal 0.844329 0.535825 0
    outer loop
      vertex 75.8316 32.0572 0
      vertex 76.0671 31.6861 2
      vertex 76.0671 31.6861 0
    endloop
  endfacet
  facet normal 0.368126 0.929776 -0
    outer loop
      vertex 74.4902 33.1669 0
      vertex 74.0816 33.3287 2
      vertex 74.4902 33.1669 2
    endloop
  endfacet
  facet normal 0.368126 0.929776 0
    outer loop
      vertex 74.0816 33.3287 2
      vertex 74.4902 33.1669 0
      vertex 74.0816 33.3287 0
    endloop
  endfacet
  facet normal 0.481749 0.876309 -0
    outer loop
      vertex 74.8754 32.9551 0
      vertex 74.4902 33.1669 2
      vertex 74.8754 32.9551 2
    endloop
  endfacet
  facet normal 0.481749 0.876309 0
    outer loop
      vertex 74.4902 33.1669 2
      vertex 74.8754 32.9551 0
      vertex 74.4902 33.1669 0
    endloop
  endfacet
  facet normal -0.951054 0.309023 0
    outer loop
      vertex 69.61 30.8704 0
      vertex 69.7458 31.2884 2
      vertex 69.7458 31.2884 0
    endloop
  endfacet
  facet normal -0.951054 0.309023 0
    outer loop
      vertex 69.7458 31.2884 2
      vertex 69.61 30.8704 0
      vertex 69.61 30.8704 2
    endloop
  endfacet
  facet normal -0.982288 0.187379 0
    outer loop
      vertex 69.5276 30.4387 0
      vertex 69.61 30.8704 2
      vertex 69.61 30.8704 0
    endloop
  endfacet
  facet normal -0.982288 0.187379 0
    outer loop
      vertex 69.61 30.8704 2
      vertex 69.5276 30.4387 0
      vertex 69.5276 30.4387 2
    endloop
  endfacet
  facet normal -0.24869 0.968583 0
    outer loop
      vertex 72.3442 33.438 0
      vertex 71.9184 33.3287 2
      vertex 72.3442 33.438 2
    endloop
  endfacet
  facet normal -0.24869 0.968583 0
    outer loop
      vertex 71.9184 33.3287 2
      vertex 72.3442 33.438 0
      vertex 71.9184 33.3287 0
    endloop
  endfacet
  facet normal 0.95106 0.309008 0
    outer loop
      vertex 76.39 30.8704 2
      vertex 76.2542 31.2884 0
      vertex 76.2542 31.2884 2
    endloop
  endfacet
  facet normal 0.95106 0.309008 0
    outer loop
      vertex 76.2542 31.2884 0
      vertex 76.39 30.8704 2
      vertex 76.39 30.8704 0
    endloop
  endfacet
  facet normal 0.770515 0.637422 0
    outer loop
      vertex 75.8316 32.0572 2
      vertex 75.5514 32.3959 0
      vertex 75.5514 32.3959 2
    endloop
  endfacet
  facet normal 0.770515 0.637422 0
    outer loop
      vertex 75.5514 32.3959 0
      vertex 75.8316 32.0572 2
      vertex 75.8316 32.0572 0
    endloop
  endfacet
  facet normal 0.24869 0.968583 -0
    outer loop
      vertex 74.0816 33.3287 0
      vertex 73.6558 33.438 2
      vertex 74.0816 33.3287 2
    endloop
  endfacet
  facet normal 0.24869 0.968583 0
    outer loop
      vertex 73.6558 33.438 2
      vertex 74.0816 33.3287 0
      vertex 73.6558 33.438 0
    endloop
  endfacet
  facet normal 0.12534 0.992114 -0
    outer loop
      vertex 73.6558 33.438 0
      vertex 73.2198 33.4931 2
      vertex 73.6558 33.438 2
    endloop
  endfacet
  facet normal 0.12534 0.992114 0
    outer loop
      vertex 73.2198 33.4931 2
      vertex 73.6558 33.438 0
      vertex 73.2198 33.4931 0
    endloop
  endfacet
  facet normal 0.587783 0.809019 -0
    outer loop
      vertex 75.231 32.6968 0
      vertex 74.8754 32.9551 2
      vertex 75.231 32.6968 2
    endloop
  endfacet
  facet normal 0.587783 0.809019 0
    outer loop
      vertex 74.8754 32.9551 2
      vertex 75.231 32.6968 0
      vertex 74.8754 32.9551 0
    endloop
  endfacet
  facet normal -0.90483 0.425773 0
    outer loop
      vertex 69.7458 31.2884 0
      vertex 69.9329 31.6861 2
      vertex 69.9329 31.6861 0
    endloop
  endfacet
  facet normal -0.90483 0.425773 0
    outer loop
      vertex 69.9329 31.6861 2
      vertex 69.7458 31.2884 0
      vertex 69.7458 31.2884 2
    endloop
  endfacet
  facet normal -0.844321 0.535837 0
    outer loop
      vertex 69.9329 31.6861 0
      vertex 70.1684 32.0572 2
      vertex 70.1684 32.0572 0
    endloop
  endfacet
  facet normal -0.844321 0.535837 0
    outer loop
      vertex 70.1684 32.0572 2
      vertex 69.9329 31.6861 0
      vertex 69.9329 31.6861 2
    endloop
  endfacet
  facet normal -0.998027 0.0627838 0
    outer loop
      vertex 69.5 30 0
      vertex 69.5276 30.4387 2
      vertex 69.5276 30.4387 0
    endloop
  endfacet
  facet normal -0.998027 0.0627838 0
    outer loop
      vertex 69.5276 30.4387 2
      vertex 69.5 30 0
      vertex 69.5 30 2
    endloop
  endfacet
  facet normal -0.587783 0.809019 0
    outer loop
      vertex 71.1246 32.9551 0
      vertex 70.769 32.6968 2
      vertex 71.1246 32.9551 2
    endloop
  endfacet
  facet normal -0.587783 0.809019 0
    outer loop
      vertex 70.769 32.6968 2
      vertex 71.1246 32.9551 0
      vertex 70.769 32.6968 0
    endloop
  endfacet
  facet normal -0.481749 0.876309 0
    outer loop
      vertex 71.5098 33.1669 0
      vertex 71.1246 32.9551 2
      vertex 71.5098 33.1669 2
    endloop
  endfacet
  facet normal -0.481749 0.876309 0
    outer loop
      vertex 71.1246 32.9551 2
      vertex 71.5098 33.1669 0
      vertex 71.1246 32.9551 0
    endloop
  endfacet
  facet normal -0.684553 0.728963 0
    outer loop
      vertex 70.769 32.6968 0
      vertex 70.4486 32.3959 2
      vertex 70.769 32.6968 2
    endloop
  endfacet
  facet normal -0.684553 0.728963 0
    outer loop
      vertex 70.4486 32.3959 2
      vertex 70.769 32.6968 0
      vertex 70.4486 32.3959 0
    endloop
  endfacet
  facet normal -0.12534 0.992114 0
    outer loop
      vertex 72.7802 33.4931 0
      vertex 72.3442 33.438 2
      vertex 72.7802 33.4931 2
    endloop
  endfacet
  facet normal -0.12534 0.992114 0
    outer loop
      vertex 72.3442 33.438 2
      vertex 72.7802 33.4931 0
      vertex 72.3442 33.438 0
    endloop
  endfacet
  facet normal 0.998026 -0.0628008 0
    outer loop
      vertex 76.4724 29.5613 2
      vertex 76.5 30 0
      vertex 76.5 30 2
    endloop
  endfacet
  facet normal 0.998026 -0.0628008 0
    outer loop
      vertex 76.5 30 0
      vertex 76.4724 29.5613 2
      vertex 76.4724 29.5613 0
    endloop
  endfacet
  facet normal 0.684548 -0.728967 0
    outer loop
      vertex 75.231 27.3032 0
      vertex 75.5514 27.6041 2
      vertex 75.231 27.3032 2
    endloop
  endfacet
  facet normal 0.684548 -0.728967 0
    outer loop
      vertex 75.5514 27.6041 2
      vertex 75.231 27.3032 0
      vertex 75.5514 27.6041 0
    endloop
  endfacet
  facet normal 0.481749 -0.876309 0
    outer loop
      vertex 74.7938 27 0
      vertex 74.8754 27.0449 2
      vertex 74.7938 27 2
    endloop
  endfacet
  facet normal 0.481749 -0.876309 0
    outer loop
      vertex 74.8754 27.0449 2
      vertex 74.7938 27 0
      vertex 74.8754 27.0449 0
    endloop
  endfacet
  facet normal 0.95106 -0.309006 0
    outer loop
      vertex 76.2542 28.7116 2
      vertex 76.39 29.1296 0
      vertex 76.39 29.1296 2
    endloop
  endfacet
  facet normal 0.95106 -0.309006 0
    outer loop
      vertex 76.39 29.1296 0
      vertex 76.2542 28.7116 2
      vertex 76.2542 28.7116 0
    endloop
  endfacet
  facet normal 0.84433 -0.535823 0
    outer loop
      vertex 75.8316 27.9428 2
      vertex 76.0671 28.3139 0
      vertex 76.0671 28.3139 2
    endloop
  endfacet
  facet normal 0.84433 -0.535823 0
    outer loop
      vertex 76.0671 28.3139 0
      vertex 75.8316 27.9428 2
      vertex 75.8316 27.9428 0
    endloop
  endfacet
  facet normal 0.770517 -0.63742 0
    outer loop
      vertex 75.5514 27.6041 2
      vertex 75.8316 27.9428 0
      vertex 75.8316 27.9428 2
    endloop
  endfacet
  facet normal 0.770517 -0.63742 0
    outer loop
      vertex 75.8316 27.9428 0
      vertex 75.5514 27.6041 2
      vertex 75.5514 27.6041 0
    endloop
  endfacet
  facet normal 0.587783 -0.809019 0
    outer loop
      vertex 74.8754 27.0449 0
      vertex 75.231 27.3032 2
      vertex 74.8754 27.0449 2
    endloop
  endfacet
  facet normal 0.587783 -0.809019 0
    outer loop
      vertex 75.231 27.3032 2
      vertex 74.8754 27.0449 0
      vertex 75.231 27.3032 0
    endloop
  endfacet
  facet normal 0.982288 -0.187379 0
    outer loop
      vertex 76.39 29.1296 2
      vertex 76.4724 29.5613 0
      vertex 76.4724 29.5613 2
    endloop
  endfacet
  facet normal 0.982288 -0.187379 0
    outer loop
      vertex 76.4724 29.5613 0
      vertex 76.39 29.1296 2
      vertex 76.39 29.1296 0
    endloop
  endfacet
  facet normal 0.904823 -0.425789 0
    outer loop
      vertex 76.0671 28.3139 2
      vertex 76.2542 28.7116 0
      vertex 76.2542 28.7116 2
    endloop
  endfacet
  facet normal 0.904823 -0.425789 0
    outer loop
      vertex 76.2542 28.7116 0
      vertex 76.0671 28.3139 2
      vertex 76.0671 28.3139 0
    endloop
  endfacet
  facet normal 1 -0 0
    outer loop
      vertex 75 0 2
      vertex 75 27 0
      vertex 75 27 2
    endloop
  endfacet
  facet normal 1 0 0
    outer loop
      vertex 75 27 0
      vertex 75 0 2
      vertex 75 0 0
    endloop
  endfacet
  facet normal 0 1 -0
    outer loop
      vertex 75 27 0
      vertex 74.7938 27 2
      vertex 75 27 2
    endloop
  endfacet
  facet normal 0 1 0
    outer loop
      vertex 74.7938 27 2
      vertex 75 27 0
      vertex 74.7938 27 0
    endloop
  endfacet
  facet normal -0.999507 -0.0314065 0
    outer loop
      vertex 47.5037 15 0
      vertex 47.4889 15.4712 2
      vertex 47.4889 15.4712 0
    endloop
  endfacet
  facet normal -0.999507 -0.0314065 0
    outer loop
      vertex 47.4889 15.4712 2
      vertex 47.5037 15 0
      vertex 47.5037 15 2
    endloop
  endfacet
  facet normal 0.0314106 -0.999507 0
    outer loop
      vertex 39.5288 22.4889 0
      vertex 40 22.5037 2
      vertex 39.5288 22.4889 2
    endloop
  endfacet
  facet normal 0.0314106 -0.999507 0
    outer loop
      vertex 40 22.5037 2
      vertex 39.5288 22.4889 0
      vertex 40 22.5037 0
    endloop
  endfacet
  facet normal -0.661311 -0.750112 0
    outer loop
      vertex 44.783 20.7817 0
      vertex 45.1366 20.47 2
      vertex 44.783 20.7817 2
    endloop
  endfacet
  facet normal -0.661311 -0.750112 -0
    outer loop
      vertex 45.1366 20.47 2
      vertex 44.783 20.7817 0
      vertex 45.1366 20.47 0
    endloop
  endfacet
  facet normal 0.75011 -0.661313 0
    outer loop
      vertex 34.2183 19.783 2
      vertex 34.53 20.1366 0
      vertex 34.53 20.1366 2
    endloop
  endfacet
  facet normal 0.75011 -0.661313 0
    outer loop
      vertex 34.53 20.1366 0
      vertex 34.2183 19.783 2
      vertex 34.2183 19.783 0
    endloop
  endfacet
  facet normal 0.453992 -0.891006 0
    outer loop
      vertex 36.3851 21.5755 0
      vertex 36.8051 21.7896 2
      vertex 36.3851 21.5755 2
    endloop
  endfacet
  facet normal 0.453992 -0.891006 0
    outer loop
      vertex 36.8051 21.7896 2
      vertex 36.3851 21.5755 0
      vertex 36.8051 21.7896 0
    endloop
  endfacet
  facet normal 0.891007 0.45399 0
    outer loop
      vertex 33.4245 11.3851 2
      vertex 33.2104 11.8051 0
      vertex 33.2104 11.8051 2
    endloop
  endfacet
  facet normal 0.891007 0.45399 0
    outer loop
      vertex 33.2104 11.8051 0
      vertex 33.4245 11.3851 2
      vertex 33.4245 11.3851 0
    endloop
  endfacet
  facet normal -0.891011 -0.453982 0
    outer loop
      vertex 46.7896 18.1949 0
      vertex 46.5755 18.6149 2
      vertex 46.5755 18.6149 0
    endloop
  endfacet
  facet normal -0.891011 -0.453982 0
    outer loop
      vertex 46.5755 18.6149 2
      vertex 46.7896 18.1949 0
      vertex 46.7896 18.1949 2
    endloop
  endfacet
  facet normal -0.338738 -0.940881 0
    outer loop
      vertex 42.3188 22.1364 0
      vertex 42.7623 21.9768 2
      vertex 42.3188 22.1364 2
    endloop
  endfacet
  facet normal -0.338738 -0.940881 -0
    outer loop
      vertex 42.7623 21.9768 2
      vertex 42.3188 22.1364 0
      vertex 42.7623 21.9768 0
    endloop
  endfacet
  facet normal -0.509041 -0.860742 0
    outer loop
      vertex 43.6149 21.5755 0
      vertex 44.0207 21.3356 2
      vertex 43.6149 21.5755 2
    endloop
  endfacet
  facet normal -0.509041 -0.860742 -0
    outer loop
      vertex 44.0207 21.3356 2
      vertex 43.6149 21.5755 0
      vertex 44.0207 21.3356 0
    endloop
  endfacet
  facet normal 0.940883 -0.338732 0
    outer loop
      vertex 32.8636 17.3188 2
      vertex 33.0232 17.7623 0
      vertex 33.0232 17.7623 2
    endloop
  endfacet
  facet normal 0.940883 -0.338732 0
    outer loop
      vertex 33.0232 17.7623 0
      vertex 32.8636 17.3188 2
      vertex 32.8636 17.3188 0
    endloop
  endfacet
  facet normal 0.278994 -0.960293 0
    outer loop
      vertex 37.6812 22.1364 0
      vertex 38.1339 22.268 2
      vertex 37.6812 22.1364 2
    endloop
  endfacet
  facet normal 0.278994 -0.960293 0
    outer loop
      vertex 38.1339 22.268 2
      vertex 37.6812 22.1364 0
      vertex 38.1339 22.268 0
    endloop
  endfacet
  facet normal -0.94088 0.338739 0
    outer loop
      vertex 46.9768 12.2377 0
      vertex 47.1364 12.6812 2
      vertex 47.1364 12.6812 0
    endloop
  endfacet
  facet normal -0.94088 0.338739 0
    outer loop
      vertex 47.1364 12.6812 2
      vertex 46.9768 12.2377 0
      vertex 46.9768 12.2377 2
    endloop
  endfacet
  facet normal -0.960293 -0.278993 0
    outer loop
      vertex 47.268 16.8661 0
      vertex 47.1364 17.3188 2
      vertex 47.1364 17.3188 0
    endloop
  endfacet
  facet normal -0.960293 -0.278993 0
    outer loop
      vertex 47.1364 17.3188 2
      vertex 47.268 16.8661 0
      vertex 47.268 16.8661 2
    endloop
  endfacet
  facet normal -0.790155 -0.612908 0
    outer loop
      vertex 46.0706 19.4106 0
      vertex 45.7817 19.783 2
      vertex 45.7817 19.783 0
    endloop
  endfacet
  facet normal -0.790155 -0.612908 0
    outer loop
      vertex 45.7817 19.783 2
      vertex 46.0706 19.4106 0
      vertex 46.0706 19.4106 2
    endloop
  endfacet
  facet normal -0.750114 -0.661308 0
    outer loop
      vertex 45.7817 19.783 0
      vertex 45.47 20.1366 2
      vertex 45.47 20.1366 0
    endloop
  endfacet
  facet normal -0.750114 -0.661308 0
    outer loop
      vertex 45.47 20.1366 2
      vertex 45.7817 19.783 0
      vertex 45.7817 19.783 2
    endloop
  endfacet
  facet normal -0.86074 -0.509044 0
    outer loop
      vertex 46.5755 18.6149 0
      vertex 46.3356 19.0207 2
      vertex 46.3356 19.0207 0
    endloop
  endfacet
  facet normal -0.86074 -0.509044 0
    outer loop
      vertex 46.3356 19.0207 2
      vertex 46.5755 18.6149 0
      vertex 46.5755 18.6149 2
    endloop
  endfacet
  facet normal -0.156439 -0.987688 0
    outer loop
      vertex 40.9405 22.4445 0
      vertex 41.4061 22.3708 2
      vertex 40.9405 22.4445 2
    endloop
  endfacet
  facet normal -0.156439 -0.987688 -0
    outer loop
      vertex 41.4061 22.3708 2
      vertex 40.9405 22.4445 0
      vertex 41.4061 22.3708 0
    endloop
  endfacet
  facet normal -0.278994 -0.960293 0
    outer loop
      vertex 41.8661 22.268 0
      vertex 42.3188 22.1364 2
      vertex 41.8661 22.268 2
    endloop
  endfacet
  facet normal -0.278994 -0.960293 -0
    outer loop
      vertex 42.3188 22.1364 2
      vertex 41.8661 22.268 0
      vertex 42.3188 22.1364 0
    endloop
  endfacet
  facet normal -0.094106 -0.995562 0
    outer loop
      vertex 40.4712 22.4889 0
      vertex 40.9405 22.4445 2
      vertex 40.4712 22.4889 2
    endloop
  endfacet
  facet normal -0.094106 -0.995562 -0
    outer loop
      vertex 40.9405 22.4445 2
      vertex 40.4712 22.4889 0
      vertex 40.9405 22.4445 0
    endloop
  endfacet
  facet normal -0.453989 -0.891008 0
    outer loop
      vertex 43.1949 21.7896 0
      vertex 43.6149 21.5755 2
      vertex 43.1949 21.7896 2
    endloop
  endfacet
  facet normal -0.453989 -0.891008 -0
    outer loop
      vertex 43.6149 21.5755 2
      vertex 43.1949 21.7896 0
      vertex 43.6149 21.5755 0
    endloop
  endfacet
  facet normal -0.562086 -0.827078 0
    outer loop
      vertex 44.0207 21.3356 0
      vertex 44.4106 21.0706 2
      vertex 44.0207 21.3356 2
    endloop
  endfacet
  facet normal -0.562086 -0.827078 -0
    outer loop
      vertex 44.4106 21.0706 2
      vertex 44.0207 21.3356 0
      vertex 44.4106 21.0706 0
    endloop
  endfacet
  facet normal 0.987688 -0.156434 0
    outer loop
      vertex 32.5555 15.9405 2
      vertex 32.6292 16.4061 0
      vertex 32.6292 16.4061 2
    endloop
  endfacet
  facet normal 0.987688 -0.156434 0
    outer loop
      vertex 32.6292 16.4061 0
      vertex 32.5555 15.9405 2
      vertex 32.5555 15.9405 0
    endloop
  endfacet
  facet normal 0.86074 -0.509044 0
    outer loop
      vertex 33.4245 18.6149 2
      vertex 33.6644 19.0207 0
      vertex 33.6644 19.0207 2
    endloop
  endfacet
  facet normal 0.86074 -0.509044 0
    outer loop
      vertex 33.6644 19.0207 0
      vertex 33.4245 18.6149 2
      vertex 33.4245 18.6149 0
    endloop
  endfacet
  facet normal 0.891008 -0.453989 0
    outer loop
      vertex 33.2104 18.1949 2
      vertex 33.4245 18.6149 0
      vertex 33.4245 18.6149 2
    endloop
  endfacet
  facet normal 0.891008 -0.453989 0
    outer loop
      vertex 33.4245 18.6149 0
      vertex 33.2104 18.1949 2
      vertex 33.2104 18.1949 0
    endloop
  endfacet
  facet normal 0.960293 -0.278993 0
    outer loop
      vertex 32.732 16.8661 2
      vertex 32.8636 17.3188 0
      vertex 32.8636 17.3188 2
    endloop
  endfacet
  facet normal 0.960293 -0.278993 0
    outer loop
      vertex 32.8636 17.3188 0
      vertex 32.732 16.8661 2
      vertex 32.732 16.8661 0
    endloop
  endfacet
  facet normal 0.995562 -0.0941062 0
    outer loop
      vertex 32.5111 15.4712 2
      vertex 32.5555 15.9405 0
      vertex 32.5555 15.9405 2
    endloop
  endfacet
  facet normal 0.995562 -0.0941062 0
    outer loop
      vertex 32.5555 15.9405 0
      vertex 32.5111 15.4712 2
      vertex 32.5111 15.4712 0
    endloop
  endfacet
  facet normal 0.612905 -0.790157 0
    outer loop
      vertex 35.217 20.7817 0
      vertex 35.5894 21.0706 2
      vertex 35.217 20.7817 2
    endloop
  endfacet
  facet normal 0.612905 -0.790157 0
    outer loop
      vertex 35.5894 21.0706 2
      vertex 35.217 20.7817 0
      vertex 35.5894 21.0706 0
    endloop
  endfacet
  facet normal 0.509041 -0.860742 0
    outer loop
      vertex 35.9793 21.3356 0
      vertex 36.3851 21.5755 2
      vertex 35.9793 21.3356 2
    endloop
  endfacet
  facet normal 0.509041 -0.860742 0
    outer loop
      vertex 36.3851 21.5755 2
      vertex 35.9793 21.3356 0
      vertex 36.3851 21.5755 0
    endloop
  endfacet
  facet normal 0.661315 -0.750109 0
    outer loop
      vertex 34.8634 20.47 0
      vertex 35.217 20.7817 2
      vertex 34.8634 20.47 2
    endloop
  endfacet
  facet normal 0.661315 -0.750109 0
    outer loop
      vertex 35.217 20.7817 2
      vertex 34.8634 20.47 0
      vertex 35.217 20.7817 0
    endloop
  endfacet
  facet normal 0.156437 -0.987688 0
    outer loop
      vertex 38.5939 22.3708 0
      vertex 39.0595 22.4445 2
      vertex 38.5939 22.3708 2
    endloop
  endfacet
  facet normal 0.156437 -0.987688 0
    outer loop
      vertex 39.0595 22.4445 2
      vertex 38.5939 22.3708 0
      vertex 39.0595 22.4445 0
    endloop
  endfacet
  facet normal -0.987687 0.156442 0
    outer loop
      vertex 47.3708 13.5939 0
      vertex 47.4445 14.0595 2
      vertex 47.4445 14.0595 0
    endloop
  endfacet
  facet normal -0.987687 0.156442 0
    outer loop
      vertex 47.4445 14.0595 2
      vertex 47.3708 13.5939 0
      vertex 47.3708 13.5939 2
    endloop
  endfacet
  facet normal -0.612906 0.790156 0
    outer loop
      vertex 44.783 9.2183 0
      vertex 44.4106 8.92938 2
      vertex 44.783 9.2183 2
    endloop
  endfacet
  facet normal -0.612906 0.790156 0
    outer loop
      vertex 44.4106 8.92938 2
      vertex 44.783 9.2183 0
      vertex 44.4106 8.92938 0
    endloop
  endfacet
  facet normal -0.661311 0.750112 0
    outer loop
      vertex 45.1366 9.53004 0
      vertex 44.783 9.2183 2
      vertex 45.1366 9.53004 2
    endloop
  endfacet
  facet normal -0.661311 0.750112 0
    outer loop
      vertex 44.783 9.2183 2
      vertex 45.1366 9.53004 0
      vertex 44.783 9.2183 0
    endloop
  endfacet
  facet normal -0.509043 0.860741 0
    outer loop
      vertex 44.0207 8.66441 0
      vertex 43.6149 8.42445 2
      vertex 44.0207 8.66441 2
    endloop
  endfacet
  facet normal -0.509043 0.860741 0
    outer loop
      vertex 43.6149 8.42445 2
      vertex 44.0207 8.66441 0
      vertex 43.6149 8.42445 0
    endloop
  endfacet
  facet normal -0.89101 0.453984 0
    outer loop
      vertex 46.5755 11.3851 0
      vertex 46.7896 11.8051 2
      vertex 46.7896 11.8051 0
    endloop
  endfacet
  facet normal -0.89101 0.453984 0
    outer loop
      vertex 46.7896 11.8051 2
      vertex 46.5755 11.3851 0
      vertex 46.5755 11.3851 2
    endloop
  endfacet
  facet normal -0.960293 0.278993 0
    outer loop
      vertex 47.1364 12.6812 0
      vertex 47.268 13.1339 2
      vertex 47.268 13.1339 0
    endloop
  endfacet
  facet normal -0.960293 0.278993 0
    outer loop
      vertex 47.268 13.1339 2
      vertex 47.1364 12.6812 0
      vertex 47.1364 12.6812 2
    endloop
  endfacet
  facet normal -0.995562 0.0941062 0
    outer loop
      vertex 47.4445 14.0595 0
      vertex 47.4889 14.5288 2
      vertex 47.4889 14.5288 0
    endloop
  endfacet
  facet normal -0.995562 0.0941062 0
    outer loop
      vertex 47.4889 14.5288 2
      vertex 47.4445 14.0595 0
      vertex 47.4445 14.0595 2
    endloop
  endfacet
  facet normal 0.453992 0.891006 -0
    outer loop
      vertex 36.8051 8.21045 0
      vertex 36.3851 8.42445 2
      vertex 36.8051 8.21045 2
    endloop
  endfacet
  facet normal 0.453992 0.891006 0
    outer loop
      vertex 36.3851 8.42445 2
      vertex 36.8051 8.21045 0
      vertex 36.3851 8.42445 0
    endloop
  endfacet
  facet normal 0.278992 0.960293 -0
    outer loop
      vertex 38.1339 7.73204 0
      vertex 37.6812 7.86355 2
      vertex 38.1339 7.73204 2
    endloop
  endfacet
  facet normal 0.278992 0.960293 0
    outer loop
      vertex 37.6812 7.86355 2
      vertex 38.1339 7.73204 0
      vertex 37.6812 7.86355 0
    endloop
  endfacet
  facet normal 0.094108 0.995562 -0
    outer loop
      vertex 39.5288 7.5111 0
      vertex 39.0595 7.55547 2
      vertex 39.5288 7.5111 2
    endloop
  endfacet
  facet normal 0.094108 0.995562 0
    outer loop
      vertex 39.0595 7.55547 2
      vertex 39.5288 7.5111 0
      vertex 39.0595 7.55547 0
    endloop
  endfacet
  facet normal 0.860741 0.509043 0
    outer loop
      vertex 33.6644 10.9793 2
      vertex 33.4245 11.3851 0
      vertex 33.4245 11.3851 2
    endloop
  endfacet
  facet normal 0.860741 0.509043 0
    outer loop
      vertex 33.4245 11.3851 0
      vertex 33.6644 10.9793 2
      vertex 33.6644 10.9793 0
    endloop
  endfacet
  facet normal 0.750108 0.661315 0
    outer loop
      vertex 34.53 9.86336 2
      vertex 34.2183 10.217 0
      vertex 34.2183 10.217 2
    endloop
  endfacet
  facet normal 0.750108 0.661315 0
    outer loop
      vertex 34.2183 10.217 0
      vertex 34.53 9.86336 2
      vertex 34.53 9.86336 0
    endloop
  endfacet
  facet normal -0.987687 -0.156442 0
    outer loop
      vertex 47.4445 15.9405 0
      vertex 47.3708 16.4061 2
      vertex 47.3708 16.4061 0
    endloop
  endfacet
  facet normal -0.987687 -0.156442 0
    outer loop
      vertex 47.3708 16.4061 2
      vertex 47.4445 15.9405 0
      vertex 47.4445 15.9405 2
    endloop
  endfacet
  facet normal -0.995562 -0.0941062 0
    outer loop
      vertex 47.4889 15.4712 0
      vertex 47.4445 15.9405 2
      vertex 47.4445 15.9405 0
    endloop
  endfacet
  facet normal -0.995562 -0.0941062 0
    outer loop
      vertex 47.4445 15.9405 2
      vertex 47.4889 15.4712 0
      vertex 47.4889 15.4712 2
    endloop
  endfacet
  facet normal -0.975918 -0.218138 0
    outer loop
      vertex 47.3708 16.4061 0
      vertex 47.268 16.8661 2
      vertex 47.268 16.8661 0
    endloop
  endfacet
  facet normal -0.975918 -0.218138 0
    outer loop
      vertex 47.268 16.8661 2
      vertex 47.3708 16.4061 0
      vertex 47.3708 16.4061 2
    endloop
  endfacet
  facet normal -0.917754 -0.39715 0
    outer loop
      vertex 46.9768 17.7623 0
      vertex 46.7896 18.1949 2
      vertex 46.7896 18.1949 0
    endloop
  endfacet
  facet normal -0.917754 -0.39715 0
    outer loop
      vertex 46.7896 18.1949 2
      vertex 46.9768 17.7623 0
      vertex 46.9768 17.7623 2
    endloop
  endfacet
  facet normal -0.94088 -0.338739 0
    outer loop
      vertex 47.1364 17.3188 0
      vertex 46.9768 17.7623 2
      vertex 46.9768 17.7623 0
    endloop
  endfacet
  facet normal -0.94088 -0.338739 0
    outer loop
      vertex 46.9768 17.7623 2
      vertex 47.1364 17.3188 0
      vertex 47.1364 17.3188 2
    endloop
  endfacet
  facet normal -0.707107 -0.707107 0
    outer loop
      vertex 45.47 20.1366 0
      vertex 45.1366 20.47 2
      vertex 45.1366 20.47 0
    endloop
  endfacet
  facet normal -0.707107 -0.707107 0
    outer loop
      vertex 45.1366 20.47 2
      vertex 45.47 20.1366 0
      vertex 45.47 20.1366 2
    endloop
  endfacet
  facet normal -0.827078 -0.562086 0
    outer loop
      vertex 46.3356 19.0207 0
      vertex 46.0706 19.4106 2
      vertex 46.0706 19.4106 0
    endloop
  endfacet
  facet normal -0.827078 -0.562086 0
    outer loop
      vertex 46.0706 19.4106 2
      vertex 46.3356 19.0207 0
      vertex 46.3356 19.0207 2
    endloop
  endfacet
  facet normal -0.218141 -0.975917 0
    outer loop
      vertex 41.4061 22.3708 0
      vertex 41.8661 22.268 2
      vertex 41.4061 22.3708 2
    endloop
  endfacet
  facet normal -0.218141 -0.975917 -0
    outer loop
      vertex 41.8661 22.268 2
      vertex 41.4061 22.3708 0
      vertex 41.8661 22.268 0
    endloop
  endfacet
  facet normal -0.0314106 -0.999507 0
    outer loop
      vertex 40 22.5037 0
      vertex 40.4712 22.4889 2
      vertex 40 22.5037 2
    endloop
  endfacet
  facet normal -0.0314106 -0.999507 -0
    outer loop
      vertex 40.4712 22.4889 2
      vertex 40 22.5037 0
      vertex 40.4712 22.4889 0
    endloop
  endfacet
  facet normal -0.397148 -0.917754 0
    outer loop
      vertex 42.7623 21.9768 0
      vertex 43.1949 21.7896 2
      vertex 42.7623 21.9768 2
    endloop
  endfacet
  facet normal -0.397148 -0.917754 -0
    outer loop
      vertex 43.1949 21.7896 2
      vertex 42.7623 21.9768 0
      vertex 43.1949 21.7896 0
    endloop
  endfacet
  facet normal -0.612905 -0.790157 0
    outer loop
      vertex 44.4106 21.0706 0
      vertex 44.783 20.7817 2
      vertex 44.4106 21.0706 2
    endloop
  endfacet
  facet normal -0.612905 -0.790157 -0
    outer loop
      vertex 44.783 20.7817 2
      vertex 44.4106 21.0706 0
      vertex 44.783 20.7817 0
    endloop
  endfacet
  facet normal 0.827082 -0.562081 0
    outer loop
      vertex 33.6644 19.0207 2
      vertex 33.9294 19.4106 0
      vertex 33.9294 19.4106 2
    endloop
  endfacet
  facet normal 0.827082 -0.562081 0
    outer loop
      vertex 33.9294 19.4106 0
      vertex 33.6644 19.0207 2
      vertex 33.6644 19.0207 0
    endloop
  endfacet
  facet normal 0.790155 -0.612908 0
    outer loop
      vertex 33.9294 19.4106 2
      vertex 34.2183 19.783 0
      vertex 34.2183 19.783 2
    endloop
  endfacet
  facet normal 0.790155 -0.612908 0
    outer loop
      vertex 34.2183 19.783 0
      vertex 33.9294 19.4106 2
      vertex 33.9294 19.4106 0
    endloop
  endfacet
  facet normal 0.917754 -0.39715 0
    outer loop
      vertex 33.0232 17.7623 2
      vertex 33.2104 18.1949 0
      vertex 33.2104 18.1949 2
    endloop
  endfacet
  facet normal 0.917754 -0.39715 0
    outer loop
      vertex 33.2104 18.1949 0
      vertex 33.0232 17.7623 2
      vertex 33.0232 17.7623 0
    endloop
  endfacet
  facet normal 0.975916 -0.218146 0
    outer loop
      vertex 32.6292 16.4061 2
      vertex 32.732 16.8661 0
      vertex 32.732 16.8661 2
    endloop
  endfacet
  facet normal 0.975916 -0.218146 0
    outer loop
      vertex 32.732 16.8661 0
      vertex 32.6292 16.4061 2
      vertex 32.6292 16.4061 0
    endloop
  endfacet
  facet normal 0.999506 -0.0314146 0
    outer loop
      vertex 32.4963 15 2
      vertex 32.5111 15.4712 0
      vertex 32.5111 15.4712 2
    endloop
  endfacet
  facet normal 0.999506 -0.0314146 0
    outer loop
      vertex 32.5111 15.4712 0
      vertex 32.4963 15 2
      vertex 32.4963 15 0
    endloop
  endfacet
  facet normal 0.562083 -0.827081 0
    outer loop
      vertex 35.5894 21.0706 0
      vertex 35.9793 21.3356 2
      vertex 35.5894 21.0706 2
    endloop
  endfacet
  facet normal 0.562083 -0.827081 0
    outer loop
      vertex 35.9793 21.3356 2
      vertex 35.5894 21.0706 0
      vertex 35.9793 21.3356 0
    endloop
  endfacet
  facet normal 0.707107 -0.707107 0
    outer loop
      vertex 34.53 20.1366 2
      vertex 34.8634 20.47 0
      vertex 34.8634 20.47 2
    endloop
  endfacet
  facet normal 0.707107 -0.707107 0
    outer loop
      vertex 34.8634 20.47 0
      vertex 34.53 20.1366 2
      vertex 34.53 20.1366 0
    endloop
  endfacet
  facet normal 0.338738 -0.940881 0
    outer loop
      vertex 37.2377 21.9768 0
      vertex 37.6812 22.1364 2
      vertex 37.2377 21.9768 2
    endloop
  endfacet
  facet normal 0.338738 -0.940881 0
    outer loop
      vertex 37.6812 22.1364 2
      vertex 37.2377 21.9768 0
      vertex 37.6812 22.1364 0
    endloop
  endfacet
  facet normal 0.397145 -0.917756 0
    outer loop
      vertex 36.8051 21.7896 0
      vertex 37.2377 21.9768 2
      vertex 36.8051 21.7896 2
    endloop
  endfacet
  facet normal 0.397145 -0.917756 0
    outer loop
      vertex 37.2377 21.9768 2
      vertex 36.8051 21.7896 0
      vertex 37.2377 21.9768 0
    endloop
  endfacet
  facet normal 0.218142 -0.975917 0
    outer loop
      vertex 38.1339 22.268 0
      vertex 38.5939 22.3708 2
      vertex 38.1339 22.268 2
    endloop
  endfacet
  facet normal 0.218142 -0.975917 0
    outer loop
      vertex 38.5939 22.3708 2
      vertex 38.1339 22.268 0
      vertex 38.5939 22.3708 0
    endloop
  endfacet
  facet normal 0.094106 -0.995562 0
    outer loop
      vertex 39.0595 22.4445 0
      vertex 39.5288 22.4889 2
      vertex 39.0595 22.4445 2
    endloop
  endfacet
  facet normal 0.094106 -0.995562 0
    outer loop
      vertex 39.5288 22.4889 2
      vertex 39.0595 22.4445 0
      vertex 39.5288 22.4889 0
    endloop
  endfacet
  facet normal -0.094108 0.995562 0
    outer loop
      vertex 40.9405 7.55547 0
      vertex 40.4712 7.5111 2
      vertex 40.9405 7.55547 2
    endloop
  endfacet
  facet normal -0.094108 0.995562 0
    outer loop
      vertex 40.4712 7.5111 2
      vertex 40.9405 7.55547 0
      vertex 40.4712 7.5111 0
    endloop
  endfacet
  facet normal -0.218141 0.975917 0
    outer loop
      vertex 41.8661 7.73204 0
      vertex 41.4061 7.62921 2
      vertex 41.8661 7.73204 2
    endloop
  endfacet
  facet normal -0.218141 0.975917 0
    outer loop
      vertex 41.4061 7.62921 2
      vertex 41.8661 7.73204 0
      vertex 41.4061 7.62921 0
    endloop
  endfacet
  facet normal -0.453989 0.891008 0
    outer loop
      vertex 43.6149 8.42445 0
      vertex 43.1949 8.21045 2
      vertex 43.6149 8.42445 2
    endloop
  endfacet
  facet normal -0.453989 0.891008 0
    outer loop
      vertex 43.1949 8.21045 2
      vertex 43.6149 8.42445 0
      vertex 43.1949 8.21045 0
    endloop
  endfacet
  facet normal -0.338738 0.940881 0
    outer loop
      vertex 42.7623 8.02323 0
      vertex 42.3188 7.86355 2
      vertex 42.7623 8.02323 2
    endloop
  endfacet
  facet normal -0.338738 0.940881 0
    outer loop
      vertex 42.3188 7.86355 2
      vertex 42.7623 8.02323 0
      vertex 42.3188 7.86355 0
    endloop
  endfacet
  facet normal -0.707108 0.707106 0
    outer loop
      vertex 45.1366 9.53004 0
      vertex 45.47 9.86336 2
      vertex 45.47 9.86336 0
    endloop
  endfacet
  facet normal -0.707108 0.707106 0
    outer loop
      vertex 45.47 9.86336 2
      vertex 45.1366 9.53004 0
      vertex 45.1366 9.53004 2
    endloop
  endfacet
  facet normal -0.562084 0.82708 0
    outer loop
      vertex 44.4106 8.92938 0
      vertex 44.0207 8.66441 2
      vertex 44.4106 8.92938 2
    endloop
  endfacet
  facet normal -0.562084 0.82708 0
    outer loop
      vertex 44.0207 8.66441 2
      vertex 44.4106 8.92938 0
      vertex 44.0207 8.66441 0
    endloop
  endfacet
  facet normal -0.790155 0.612908 0
    outer loop
      vertex 45.7817 10.217 0
      vertex 46.0706 10.5894 2
      vertex 46.0706 10.5894 0
    endloop
  endfacet
  facet normal -0.790155 0.612908 0
    outer loop
      vertex 46.0706 10.5894 2
      vertex 45.7817 10.217 0
      vertex 45.7817 10.217 2
    endloop
  endfacet
  facet normal -0.860741 0.509043 0
    outer loop
      vertex 46.3356 10.9793 0
      vertex 46.5755 11.3851 2
      vertex 46.5755 11.3851 0
    endloop
  endfacet
  facet normal -0.860741 0.509043 0
    outer loop
      vertex 46.5755 11.3851 2
      vertex 46.3356 10.9793 0
      vertex 46.3356 10.9793 2
    endloop
  endfacet
  facet normal -0.917754 0.397149 0
    outer loop
      vertex 46.7896 11.8051 0
      vertex 46.9768 12.2377 2
      vertex 46.9768 12.2377 0
    endloop
  endfacet
  facet normal -0.917754 0.397149 0
    outer loop
      vertex 46.9768 12.2377 2
      vertex 46.7896 11.8051 0
      vertex 46.7896 11.8051 2
    endloop
  endfacet
  facet normal -0.975918 0.218138 0
    outer loop
      vertex 47.268 13.1339 0
      vertex 47.3708 13.5939 2
      vertex 47.3708 13.5939 0
    endloop
  endfacet
  facet normal -0.975918 0.218138 0
    outer loop
      vertex 47.3708 13.5939 2
      vertex 47.268 13.1339 0
      vertex 47.268 13.1339 2
    endloop
  endfacet
  facet normal -0.999507 0.0314065 0
    outer loop
      vertex 47.4889 14.5288 0
      vertex 47.5037 15 2
      vertex 47.5037 15 0
    endloop
  endfacet
  facet normal -0.999507 0.0314065 0
    outer loop
      vertex 47.5037 15 2
      vertex 47.4889 14.5288 0
      vertex 47.4889 14.5288 2
    endloop
  endfacet
  facet normal 0.612906 0.790156 -0
    outer loop
      vertex 35.5894 8.92938 0
      vertex 35.217 9.2183 2
      vertex 35.5894 8.92938 2
    endloop
  endfacet
  facet normal 0.612906 0.790156 0
    outer loop
      vertex 35.217 9.2183 2
      vertex 35.5894 8.92938 0
      vertex 35.217 9.2183 0
    endloop
  endfacet
  facet normal 0.509043 0.860741 -0
    outer loop
      vertex 36.3851 8.42445 0
      vertex 35.9793 8.66441 2
      vertex 36.3851 8.42445 2
    endloop
  endfacet
  facet normal 0.509043 0.860741 0
    outer loop
      vertex 35.9793 8.66441 2
      vertex 36.3851 8.42445 0
      vertex 35.9793 8.66441 0
    endloop
  endfacet
  facet normal 0.397147 0.917755 -0
    outer loop
      vertex 37.2377 8.02323 0
      vertex 36.8051 8.21045 2
      vertex 37.2377 8.02323 2
    endloop
  endfacet
  facet normal 0.397147 0.917755 0
    outer loop
      vertex 36.8051 8.21045 2
      vertex 37.2377 8.02323 0
      vertex 36.8051 8.21045 0
    endloop
  endfacet
  facet normal 0.218142 0.975917 -0
    outer loop
      vertex 38.5939 7.62921 0
      vertex 38.1339 7.73204 2
      vertex 38.5939 7.62921 2
    endloop
  endfacet
  facet normal 0.218142 0.975917 0
    outer loop
      vertex 38.1339 7.73204 2
      vertex 38.5939 7.62921 0
      vertex 38.1339 7.73204 0
    endloop
  endfacet
  facet normal 0.0314106 0.999507 -0
    outer loop
      vertex 40 7.4963 0
      vertex 39.5288 7.5111 2
      vertex 40 7.4963 2
    endloop
  endfacet
  facet normal 0.0314106 0.999507 0
    outer loop
      vertex 39.5288 7.5111 2
      vertex 40 7.4963 0
      vertex 39.5288 7.5111 0
    endloop
  endfacet
  facet normal 0.827082 0.562081 0
    outer loop
      vertex 33.9294 10.5894 2
      vertex 33.6644 10.9793 0
      vertex 33.6644 10.9793 2
    endloop
  endfacet
  facet normal 0.827082 0.562081 0
    outer loop
      vertex 33.6644 10.9793 0
      vertex 33.9294 10.5894 2
      vertex 33.9294 10.5894 0
    endloop
  endfacet
  facet normal 0.707108 0.707106 0
    outer loop
      vertex 34.8634 9.53004 2
      vertex 34.53 9.86336 0
      vertex 34.53 9.86336 2
    endloop
  endfacet
  facet normal 0.707108 0.707106 0
    outer loop
      vertex 34.53 9.86336 0
      vertex 34.8634 9.53004 2
      vertex 34.8634 9.53004 0
    endloop
  endfacet
  facet normal 0.917754 0.397149 0
    outer loop
      vertex 33.2104 11.8051 2
      vertex 33.0232 12.2377 0
      vertex 33.0232 12.2377 2
    endloop
  endfacet
  facet normal 0.917754 0.397149 0
    outer loop
      vertex 33.0232 12.2377 0
      vertex 33.2104 11.8051 2
      vertex 33.2104 11.8051 0
    endloop
  endfacet
  facet normal 0.940883 0.338732 0
    outer loop
      vertex 33.0232 12.2377 2
      vertex 32.8636 12.6812 0
      vertex 32.8636 12.6812 2
    endloop
  endfacet
  facet normal 0.940883 0.338732 0
    outer loop
      vertex 32.8636 12.6812 0
      vertex 33.0232 12.2377 2
      vertex 33.0232 12.2377 0
    endloop
  endfacet
  facet normal 0.975916 0.218146 0
    outer loop
      vertex 32.732 13.1339 2
      vertex 32.6292 13.5939 0
      vertex 32.6292 13.5939 2
    endloop
  endfacet
  facet normal 0.975916 0.218146 0
    outer loop
      vertex 32.6292 13.5939 0
      vertex 32.732 13.1339 2
      vertex 32.732 13.1339 0
    endloop
  endfacet
  facet normal 0.960293 0.278993 0
    outer loop
      vertex 32.8636 12.6812 2
      vertex 32.732 13.1339 0
      vertex 32.732 13.1339 2
    endloop
  endfacet
  facet normal 0.960293 0.278993 0
    outer loop
      vertex 32.732 13.1339 0
      vertex 32.8636 12.6812 2
      vertex 32.8636 12.6812 0
    endloop
  endfacet
  facet normal 0.995562 0.0941062 0
    outer loop
      vertex 32.5555 14.0595 2
      vertex 32.5111 14.5288 0
      vertex 32.5111 14.5288 2
    endloop
  endfacet
  facet normal 0.995562 0.0941062 0
    outer loop
      vertex 32.5111 14.5288 0
      vertex 32.5555 14.0595 2
      vertex 32.5555 14.0595 0
    endloop
  endfacet
  facet normal 0.999506 0.0314146 0
    outer loop
      vertex 32.5111 14.5288 2
      vertex 32.4963 15 0
      vertex 32.4963 15 2
    endloop
  endfacet
  facet normal 0.999506 0.0314146 0
    outer loop
      vertex 32.4963 15 0
      vertex 32.5111 14.5288 2
      vertex 32.5111 14.5288 0
    endloop
  endfacet
  facet normal -0.156437 0.987688 0
    outer loop
      vertex 41.4061 7.62921 0
      vertex 40.9405 7.55547 2
      vertex 41.4061 7.62921 2
    endloop
  endfacet
  facet normal -0.156437 0.987688 0
    outer loop
      vertex 40.9405 7.55547 2
      vertex 41.4061 7.62921 0
      vertex 40.9405 7.55547 0
    endloop
  endfacet
  facet normal -0.278992 0.960293 0
    outer loop
      vertex 42.3188 7.86355 0
      vertex 41.8661 7.73204 2
      vertex 42.3188 7.86355 2
    endloop
  endfacet
  facet normal -0.278992 0.960293 0
    outer loop
      vertex 41.8661 7.73204 2
      vertex 42.3188 7.86355 0
      vertex 41.8661 7.73204 0
    endloop
  endfacet
  facet normal -0.39715 0.917754 0
    outer loop
      vertex 43.1949 8.21045 0
      vertex 42.7623 8.02323 2
      vertex 43.1949 8.21045 2
    endloop
  endfacet
  facet normal -0.39715 0.917754 0
    outer loop
      vertex 42.7623 8.02323 2
      vertex 43.1949 8.21045 0
      vertex 42.7623 8.02323 0
    endloop
  endfacet
  facet normal -0.750112 0.66131 0
    outer loop
      vertex 45.47 9.86336 0
      vertex 45.7817 10.217 2
      vertex 45.7817 10.217 0
    endloop
  endfacet
  facet normal -0.750112 0.66131 0
    outer loop
      vertex 45.7817 10.217 2
      vertex 45.47 9.86336 0
      vertex 45.47 9.86336 2
    endloop
  endfacet
  facet normal -0.827078 0.562086 0
    outer loop
      vertex 46.0706 10.5894 0
      vertex 46.3356 10.9793 2
      vertex 46.3356 10.9793 0
    endloop
  endfacet
  facet normal -0.827078 0.562086 0
    outer loop
      vertex 46.3356 10.9793 2
      vertex 46.0706 10.5894 0
      vertex 46.0706 10.5894 2
    endloop
  endfacet
  facet normal 0.56208 0.827083 -0
    outer loop
      vertex 35.9793 8.66441 0
      vertex 35.5894 8.92938 2
      vertex 35.9793 8.66441 2
    endloop
  endfacet
  facet normal 0.56208 0.827083 0
    outer loop
      vertex 35.5894 8.92938 2
      vertex 35.9793 8.66441 0
      vertex 35.5894 8.92938 0
    endloop
  endfacet
  facet normal 0.338738 0.940881 -0
    outer loop
      vertex 37.6812 7.86355 0
      vertex 37.2377 8.02323 2
      vertex 37.6812 7.86355 2
    endloop
  endfacet
  facet normal 0.338738 0.940881 0
    outer loop
      vertex 37.2377 8.02323 2
      vertex 37.6812 7.86355 0
      vertex 37.2377 8.02323 0
    endloop
  endfacet
  facet normal 0.156435 0.987688 -0
    outer loop
      vertex 39.0595 7.55547 0
      vertex 38.5939 7.62921 2
      vertex 39.0595 7.55547 2
    endloop
  endfacet
  facet normal 0.156435 0.987688 0
    outer loop
      vertex 38.5939 7.62921 2
      vertex 39.0595 7.55547 0
      vertex 38.5939 7.62921 0
    endloop
  endfacet
  facet normal -0.0314106 0.999507 0
    outer loop
      vertex 40.4712 7.5111 0
      vertex 40 7.4963 2
      vertex 40.4712 7.5111 2
    endloop
  endfacet
  facet normal -0.0314106 0.999507 0
    outer loop
      vertex 40 7.4963 2
      vertex 40.4712 7.5111 0
      vertex 40 7.4963 0
    endloop
  endfacet
  facet normal 0.790155 0.612908 0
    outer loop
      vertex 34.2183 10.217 2
      vertex 33.9294 10.5894 0
      vertex 33.9294 10.5894 2
    endloop
  endfacet
  facet normal 0.790155 0.612908 0
    outer loop
      vertex 33.9294 10.5894 0
      vertex 34.2183 10.217 2
      vertex 34.2183 10.217 0
    endloop
  endfacet
  facet normal 0.661315 0.750109 -0
    outer loop
      vertex 35.217 9.2183 0
      vertex 34.8634 9.53004 2
      vertex 35.217 9.2183 2
    endloop
  endfacet
  facet normal 0.661315 0.750109 0
    outer loop
      vertex 34.8634 9.53004 2
      vertex 35.217 9.2183 0
      vertex 34.8634 9.53004 0
    endloop
  endfacet
  facet normal 0.987688 0.156434 0
    outer loop
      vertex 32.6292 13.5939 2
      vertex 32.5555 14.0595 0
      vertex 32.5555 14.0595 2
    endloop
  endfacet
  facet normal 0.987688 0.156434 0
    outer loop
      vertex 32.5555 14.0595 0
      vertex 32.6292 13.5939 2
      vertex 32.6292 13.5939 0
    endloop
  endfacet
endsolid OpenSCAD_Model
