solid OpenSCAD_Model
  facet normal -1 0 0
    outer loop
      vertex 0 0 0
      vertex 0 27 5
      vertex 0 27 0
    endloop
  endfacet
  facet normal -1 -0 0
    outer loop
      vertex 0 27 5
      vertex 0 0 0
      vertex 0 0 5
    endloop
  endfacet
  facet normal 0 0 1
    outer loop
      vertex 20 27 1
      vertex 19 25 1
      vertex 20 0 1
    endloop
  endfacet
  facet normal 0 0 1
    outer loop
      vertex 20 27 1
      vertex 18 25 1
      vertex 19 25 1
    endloop
  endfacet
  facet normal 0 0 1
    outer loop
      vertex 18 25 1
      vertex 2 27 1
      vertex 18 2 1
    endloop
  endfacet
  facet normal -0 0 1
    outer loop
      vertex 2 27 1
      vertex 18 25 1
      vertex 20 27 1
    endloop
  endfacet
  facet normal -0 0 1
    outer loop
      vertex 19 2 1
      vertex 20 0 1
      vertex 19 25 1
    endloop
  endfacet
  facet normal -0 0 1
    outer loop
      vertex 18 2 1
      vertex 20 0 1
      vertex 19 2 1
    endloop
  endfacet
  facet normal 0 0 1
    outer loop
      vertex 18 2 1
      vertex 2 0 1
      vertex 20 0 1
    endloop
  endfacet
  facet normal 0 0 1
    outer loop
      vertex 2 0 1
      vertex 18 2 1
      vertex 2 27 1
    endloop
  endfacet
  facet normal 1 -0 0
    outer loop
      vertex 20 0 1
      vertex 20 27 0
      vertex 20 27 1
    endloop
  endfacet
  facet normal 1 0 0
    outer loop
      vertex 20 27 0
      vertex 20 0 1
      vertex 20 0 0
    endloop
  endfacet
  facet normal 0 0 -1
    outer loop
      vertex 0 0 0
      vertex 20 27 0
      vertex 20 0 0
    endloop
  endfacet
  facet normal -0 0 -1
    outer loop
      vertex 20 27 0
      vertex 0 0 0
      vertex 0 27 0
    endloop
  endfacet
  facet normal 0 -1 0
    outer loop
      vertex 0 0 5
      vertex 2 0 1
      vertex 2 0 5
    endloop
  endfacet
  facet normal 0 -1 0
    outer loop
      vertex 0 0 0
      vertex 2 0 1
      vertex 0 0 5
    endloop
  endfacet
  facet normal 0 -1 0
    outer loop
      vertex 20 0 0
      vertex 2 0 1
      vertex 0 0 0
    endloop
  endfacet
  facet normal 0 -1 0
    outer loop
      vertex 2 0 1
      vertex 20 0 0
      vertex 20 0 1
    endloop
  endfacet
  facet normal 0 1 0
    outer loop
      vertex 20 27 1
      vertex 20 27 0
      vertex 2 27 1
    endloop
  endfacet
  facet normal 0 1 -0
    outer loop
      vertex 2 27 1
      vertex 0 27 5
      vertex 2 27 5
    endloop
  endfacet
  facet normal 0 1 0
    outer loop
      vertex 2 27 1
      vertex 0 27 0
      vertex 0 27 5
    endloop
  endfacet
  facet normal 0 1 0
    outer loop
      vertex 0 27 0
      vertex 2 27 1
      vertex 20 27 0
    endloop
  endfacet
  facet normal -1 0 0
    outer loop
      vertex 18 2 1
      vertex 18 25 3
      vertex 18 25 1
    endloop
  endfacet
  facet normal -1 -0 0
    outer loop
      vertex 18 25 3
      vertex 18 2 1
      vertex 18 2 3
    endloop
  endfacet
  facet normal -0 0 1
    outer loop
      vertex 18 25 3
      vertex 19 2 3
      vertex 19 25 3
    endloop
  endfacet
  facet normal 0 0 1
    outer loop
      vertex 19 2 3
      vertex 18 25 3
      vertex 18 2 3
    endloop
  endfacet
  facet normal 1 -0 0
    outer loop
      vertex 19 2 3
      vertex 19 25 1
      vertex 19 25 3
    endloop
  endfacet
  facet normal 1 0 0
    outer loop
      vertex 19 25 1
      vertex 19 2 3
      vertex 19 2 1
    endloop
  endfacet
  facet normal 0 1 -0
    outer loop
      vertex 19 25 1
      vertex 18 25 3
      vertex 19 25 3
    endloop
  endfacet
  facet normal 0 1 0
    outer loop
      vertex 18 25 3
      vertex 19 25 1
      vertex 18 25 1
    endloop
  endfacet
  facet normal 0 -1 0
    outer loop
      vertex 18 2 1
      vertex 19 2 3
      vertex 18 2 3
    endloop
  endfacet
  facet normal 0 -1 -0
    outer loop
      vertex 19 2 3
      vertex 18 2 1
      vertex 19 2 1
    endloop
  endfacet
  facet normal -0 0 1
    outer loop
      vertex 0 27 5
      vertex 2 0 5
      vertex 2 27 5
    endloop
  endfacet
  facet normal 0 0 1
    outer loop
      vertex 2 0 5
      vertex 0 27 5
      vertex 0 0 5
    endloop
  endfacet
  facet normal 1 -0 0
    outer loop
      vertex 2 0 5
      vertex 2 27 1
      vertex 2 27 5
    endloop
  endfacet
  facet normal 1 0 0
    outer loop
      vertex 2 27 1
      vertex 2 0 5
      vertex 2 0 1
    endloop
  endfacet
endsolid OpenSCAD_Model
