solid OpenSCAD_Model
  facet normal -1 0 0
    outer loop
      vertex 0 0 0
      vertex 0 27 5
      vertex 0 27 0
    endloop
  endfacet
  facet normal -1 -0 0
    outer loop
      vertex 0 27 5
      vertex 0 0 0
      vertex 0 0 5
    endloop
  endfacet
  facet normal 0 0 1
    outer loop
      vertex 30 27 1
      vertex 29 25 1
      vertex 30 0 1
    endloop
  endfacet
  facet normal 0 0 1
    outer loop
      vertex 30 27 1
      vertex 28 25 1
      vertex 29 25 1
    endloop
  endfacet
  facet normal 0 0 1
    outer loop
      vertex 28 25 1
      vertex 2 27 1
      vertex 28 2 1
    endloop
  endfacet
  facet normal -0 0 1
    outer loop
      vertex 2 27 1
      vertex 28 25 1
      vertex 30 27 1
    endloop
  endfacet
  facet normal -0 0 1
    outer loop
      vertex 29 2 1
      vertex 30 0 1
      vertex 29 25 1
    endloop
  endfacet
  facet normal -0 0 1
    outer loop
      vertex 28 2 1
      vertex 30 0 1
      vertex 29 2 1
    endloop
  endfacet
  facet normal 0 0 1
    outer loop
      vertex 2 0 1
      vertex 28 2 1
      vertex 2 27 1
    endloop
  endfacet
  facet normal 0 0 1
    outer loop
      vertex 28 2 1
      vertex 2 0 1
      vertex 30 0 1
    endloop
  endfacet
  facet normal 1 -0 0
    outer loop
      vertex 30 0 1
      vertex 30 27 0
      vertex 30 27 1
    endloop
  endfacet
  facet normal 1 0 0
    outer loop
      vertex 30 27 0
      vertex 30 0 1
      vertex 30 0 0
    endloop
  endfacet
  facet normal 0 1 0
    outer loop
      vertex 30 27 1
      vertex 30 27 0
      vertex 2 27 1
    endloop
  endfacet
  facet normal 0 1 -0
    outer loop
      vertex 2 27 1
      vertex 0 27 5
      vertex 2 27 5
    endloop
  endfacet
  facet normal 0 1 0
    outer loop
      vertex 2 27 1
      vertex 0 27 0
      vertex 0 27 5
    endloop
  endfacet
  facet normal 0 1 0
    outer loop
      vertex 0 27 0
      vertex 2 27 1
      vertex 30 27 0
    endloop
  endfacet
  facet normal 0 0 -1
    outer loop
      vertex 0 0 0
      vertex 30 27 0
      vertex 30 0 0
    endloop
  endfacet
  facet normal -0 0 -1
    outer loop
      vertex 30 27 0
      vertex 0 0 0
      vertex 0 27 0
    endloop
  endfacet
  facet normal 0 -1 0
    outer loop
      vertex 0 0 5
      vertex 2 0 1
      vertex 2 0 5
    endloop
  endfacet
  facet normal 0 -1 0
    outer loop
      vertex 0 0 0
      vertex 2 0 1
      vertex 0 0 5
    endloop
  endfacet
  facet normal 0 -1 0
    outer loop
      vertex 30 0 0
      vertex 2 0 1
      vertex 0 0 0
    endloop
  endfacet
  facet normal 0 -1 0
    outer loop
      vertex 2 0 1
      vertex 30 0 0
      vertex 30 0 1
    endloop
  endfacet
  facet normal -1 0 0
    outer loop
      vertex 28 2 1
      vertex 28 25 3
      vertex 28 25 1
    endloop
  endfacet
  facet normal -1 -0 0
    outer loop
      vertex 28 25 3
      vertex 28 2 1
      vertex 28 2 3
    endloop
  endfacet
  facet normal -0 0 1
    outer loop
      vertex 28 25 3
      vertex 29 2 3
      vertex 29 25 3
    endloop
  endfacet
  facet normal 0 0 1
    outer loop
      vertex 29 2 3
      vertex 28 25 3
      vertex 28 2 3
    endloop
  endfacet
  facet normal 1 -0 0
    outer loop
      vertex 29 2 3
      vertex 29 25 1
      vertex 29 25 3
    endloop
  endfacet
  facet normal 1 0 0
    outer loop
      vertex 29 25 1
      vertex 29 2 3
      vertex 29 2 1
    endloop
  endfacet
  facet normal 0 -1 0
    outer loop
      vertex 28 2 1
      vertex 29 2 3
      vertex 28 2 3
    endloop
  endfacet
  facet normal 0 -1 -0
    outer loop
      vertex 29 2 3
      vertex 28 2 1
      vertex 29 2 1
    endloop
  endfacet
  facet normal 0 1 -0
    outer loop
      vertex 29 25 1
      vertex 28 25 3
      vertex 29 25 3
    endloop
  endfacet
  facet normal 0 1 0
    outer loop
      vertex 28 25 3
      vertex 29 25 1
      vertex 28 25 1
    endloop
  endfacet
  facet normal -0 0 1
    outer loop
      vertex 0 27 5
      vertex 2 0 5
      vertex 2 27 5
    endloop
  endfacet
  facet normal 0 0 1
    outer loop
      vertex 2 0 5
      vertex 0 27 5
      vertex 0 0 5
    endloop
  endfacet
  facet normal 1 -0 0
    outer loop
      vertex 2 0 5
      vertex 2 27 1
      vertex 2 27 5
    endloop
  endfacet
  facet normal 1 0 0
    outer loop
      vertex 2 27 1
      vertex 2 0 5
      vertex 2 0 1
    endloop
  endfacet
endsolid OpenSCAD_Model
